<svg width="80" height="80" viewBox="0 0 80 80" fill="none" xmlns="http://www.w3.org/2000/svg">
<path d="M80 40C80 62.0913 62.092 80 40 80C17.9088 80 3.05176e-05 62.0913 3.05176e-05 40C3.05176e-05 17.9088 17.9088 0 40 0C62.092 0 80 17.9088 80 40Z" fill="#DDC3B2"/>
<path d="M78.1922 51.9229C75.1152 51.6695 71.3706 51.4487 67.1236 51.2723C64.0133 51.1434 61.0414 50.0491 58.5038 48.245C57.0575 47.2158 55.1904 46.5957 53.1499 46.5957C50.364 46.5957 47.9005 47.7515 46.3883 49.526C45.7014 50.3321 44.7064 50.8078 43.6469 50.8056C43.2023 50.8041 42.7563 50.8041 42.3073 50.8041C24.6349 50.8041 9.34676 51.4435 1.9598 52.3741C2.25098 53.2677 2.57328 54.1471 2.92374 55.0125C6.8632 55.4563 12.6446 55.8268 19.6196 56.0831C21.4022 56.1483 24.0184 54.7584 25.9448 54.808C27.9801 54.8606 29.3338 56.3521 31.5047 56.3862C34.9655 56.4395 38.5834 56.4677 42.3073 56.4677C42.7563 56.4677 43.2023 56.4677 43.6469 56.4662C44.7064 56.464 45.7014 56.9396 46.3883 57.7458C47.9005 59.5195 50.364 60.6754 53.1499 60.6754C55.1896 60.6754 57.056 60.0559 58.5023 59.0283C61.0363 57.2271 64.0066 56.1291 67.1125 55.9994C70.7882 55.8468 74.0868 55.6616 76.9038 55.4497C77.3854 54.2998 77.8173 53.1239 78.1922 51.9229Z" fill="#CCA899"/>
<path d="M59.2684 53.6359C59.2684 55.7386 56.4944 57.4435 53.0735 57.4435C49.652 57.4435 46.878 55.7386 46.878 53.6359C46.878 51.5331 49.652 49.8283 53.0735 49.8283C56.4944 49.8283 59.2684 51.5331 59.2684 53.6359Z" fill="#A78A81"/>
<path d="M55.4645 53.6359C55.4645 54.8132 53.9123 55.7675 51.9962 55.7675C50.081 55.7675 48.528 54.8132 48.528 53.6359C48.528 52.4586 50.081 51.5042 51.9962 51.5042C53.9123 51.5042 55.4645 52.4586 55.4645 53.6359Z" fill="#927571"/>
<path d="M79.6659 34.9062C78.7612 35.004 77.8529 35.0959 76.969 35.0551C74.5639 34.9432 72.3241 33.8259 69.9584 33.3814C62.7633 32.0299 55.1244 36.9497 48.2658 34.3898C45.9356 33.5199 43.9462 31.844 41.5552 31.1616C39.0798 30.4555 36.4407 30.8845 33.9038 31.3187C29.276 32.11 24.6475 32.9005 20.0182 33.6918C19.318 33.8119 18.5667 33.9252 17.9214 33.6266C17.1946 33.2895 16.7886 32.5175 16.2077 31.964C14.9422 30.7571 12.9973 30.6963 11.2502 30.7771C7.73229 30.9401 4.22774 31.3905 0.781722 32.1144C0.374216 34.1505 0.12675 36.2428 0.0415444 38.3774C2.54733 37.5639 5.11239 36.4377 7.46926 36.4229C8.07978 36.4199 8.78736 36.4947 9.12448 37.0037C9.36972 37.375 9.33267 37.8565 9.41714 38.2929C9.70906 39.8111 11.3895 40.5928 12.8891 40.9677C16.9323 41.9783 21.2726 41.7679 25.1987 40.369C29.4449 38.8568 33.597 35.945 38.0248 36.7911C41.1855 37.3949 43.8491 39.8726 47.0632 40.0141C49.1512 40.1052 51.1294 39.1902 53.0995 38.4937C56.5744 37.2653 60.4302 36.6911 63.9399 37.818C66.3775 38.6012 68.5099 40.1564 70.9453 40.9469C73.9134 41.9094 77.2127 41.5226 79.9971 40.1297C79.9971 40.086 80 40.0437 80 40C80 38.2729 79.8778 36.5747 79.6659 34.9062Z" fill="#CCA899"/>
<path d="M70.9408 14.6517C69.5309 14.8851 68.1024 15.1962 66.7332 14.8324C65.3424 14.4627 64.2237 13.4462 62.9174 12.8416C58.706 10.893 53.7974 13.5455 49.1771 13.1194C47.8419 12.9965 46.5061 12.6134 45.1813 12.8157C43.2801 13.1068 41.7523 14.5442 39.9134 15.1073C36.8311 16.052 33.5229 14.4072 30.3177 14.7517C29.1211 14.8806 27.966 15.2852 26.7672 15.3926C23.8406 15.6556 21.0888 14.1501 18.4319 12.8957C16.5314 11.9992 14.4724 11.2168 12.4082 11.0552C10.1855 13.175 8.20647 15.5452 6.51792 18.1251C8.9096 18.3489 12.3267 17.3664 14.2138 17.8095C14.8725 17.9636 15.6045 18.26 15.8127 18.9038C15.9735 19.4017 15.7587 19.9389 15.7787 20.4612C15.8342 22.009 17.7369 22.721 19.2825 22.8144C22.0468 22.9811 24.8505 22.435 27.3496 21.2421C28.6618 20.6161 29.9324 19.8025 31.3765 19.6321C34.1861 19.3002 36.8637 21.4815 39.6629 21.0673C41.0425 20.8635 42.2473 20.05 43.5661 19.5936C47.3396 18.2859 51.428 20.0152 55.0229 21.7556C58.6179 23.4953 62.6225 25.3276 66.4583 24.2147C67.3177 23.9658 68.1357 23.5731 69.013 23.4012C71.4995 22.9144 74.2839 24.1962 76.6733 24.025C75.1922 20.6301 73.2592 17.4775 70.9408 14.6517Z" fill="#E9DBC0"/>
<path d="M25.6492 13.5225C25.9856 13.4062 26.3153 13.2195 26.4983 12.9135C26.539 12.8446 26.5731 12.7638 26.5568 12.6853C26.5368 12.5897 26.4509 12.5252 26.3694 12.4719C25.5195 11.9243 24.4318 11.7628 23.4598 12.0392C23.1767 12.1199 22.8855 12.2511 22.7344 12.5037C22.0224 13.69 25.1024 13.7107 25.6492 13.5225Z" fill="#E9DBC0"/>
<path d="M43.7388 61.1755C43.7388 62.4988 42.0643 63.5716 40.0001 63.5716C37.9351 63.5716 36.2614 62.4988 36.2614 61.1755C36.2614 59.8522 37.9351 58.7793 40.0001 58.7793C42.0643 58.7793 43.7388 59.8522 43.7388 61.1755Z" fill="#CCA899"/>
<path d="M48.4154 22.3231C48.4154 22.8307 47.7811 23.2411 46.9995 23.2411C46.2178 23.2411 45.5836 22.8307 45.5836 22.3231C45.5836 21.8163 46.2178 21.4051 46.9995 21.4051C47.7811 21.4051 48.4154 21.8163 48.4154 22.3231Z" fill="#E9DBC0"/>
<path d="M60.1123 71.1349C59.3284 70.6933 58.749 69.9665 58.0355 69.4189C56.3566 68.1297 53.9241 68.6824 51.9963 67.8096C46.878 65.4913 38.1744 65.8173 34.2335 68.2171C33.4963 68.6661 31.9307 69.3456 31.2987 69.4426C30.6682 69.5404 30.0347 69.3315 29.4249 69.1411C26.8006 68.3202 24.0859 67.7882 21.3452 67.5585C20.5494 67.4925 19.7003 67.4622 19.0061 67.8571C18.6201 68.0771 18.3096 68.4157 17.9147 68.6202C17.2049 68.9877 16.3566 68.8677 15.5579 68.864C14.9607 68.861 13.8308 69.0262 12.9106 69.4234C13.8819 70.3184 14.8955 71.1668 15.952 71.9632C17.0227 71.6387 18.0881 71.2031 19.1706 71.0238C21.0725 70.7089 23.0427 70.7422 24.8557 71.4594C26.2708 72.0195 27.54 72.9702 29.0307 73.2776C30.8082 73.6459 32.625 73.0502 34.3683 72.5419C37.7795 71.5461 41.2819 70.8607 44.8168 70.4955C45.8689 70.3873 46.9373 70.3073 47.9775 70.491C48.9867 70.6703 49.9336 71.0912 50.8701 71.5076C52.1615 72.0833 53.4529 72.6582 54.7451 73.2339C56.2262 73.8933 57.7525 74.5527 59.3084 75.0329C61.0229 74.086 62.6603 73.0161 64.2096 71.8358C62.8026 71.715 61.3289 71.821 60.1123 71.1349Z" fill="#E9DBC0"/>
<path d="M49.1489 73.6755C49.1489 74.4253 48.1946 75.0329 47.0165 75.0329C45.8392 75.0329 44.8849 74.4253 44.8849 73.6755C44.8849 72.9264 45.8392 72.3189 47.0165 72.3189C48.1946 72.3189 49.1489 72.9264 49.1489 73.6755Z" fill="#E9DBC0"/>
<path d="M39.7 40.5676C39.7 41.6308 38.5449 42.4925 37.1208 42.4925C35.6968 42.4925 34.5424 41.6308 34.5424 40.5676C34.5424 39.5051 35.6968 38.6434 37.1208 38.6434C38.5449 38.6434 39.7 39.5051 39.7 40.5676Z" fill="#CCA899"/>
<path d="M56.0232 33.0842C56.0232 33.551 55.0067 33.9304 53.7538 33.9304C52.5001 33.9304 51.4836 33.551 51.4836 33.0842C51.4836 32.6167 52.5001 32.2374 53.7538 32.2374C55.0067 32.2374 56.0232 32.6167 56.0232 33.0842Z" fill="#CCA899"/>
<path d="M69.2419 48.5384C69.2419 49.1733 68.252 49.6883 67.0317 49.6883C65.8107 49.6883 64.8216 49.1733 64.8216 48.5384C64.8216 47.9041 65.8107 47.3892 67.0317 47.3892C68.252 47.3892 69.2419 47.9041 69.2419 48.5384Z" fill="#CCA899"/>
<path d="M22.3039 31.286C22.3039 31.8121 21.5112 32.2374 20.5339 32.2374C19.5559 32.2374 18.7631 31.8121 18.7631 31.286C18.7631 30.7607 19.5559 30.3355 20.5339 30.3355C21.5112 30.3355 22.3039 30.7607 22.3039 31.286Z" fill="#CCA899"/>
<path d="M27.5326 56.4232C27.5326 56.7848 26.9903 57.0782 26.3205 57.0782C25.6515 57.0782 25.1091 56.7848 25.1091 56.4232C25.1091 56.0609 25.6515 55.7675 26.3205 55.7675C26.9903 55.7675 27.5326 56.0609 27.5326 56.4232Z" fill="#CCA899"/>
<path d="M55.8913 8.95995C56.2558 8.6458 56.5907 8.21161 56.5336 7.73372C56.4877 7.35215 56.1921 7.03726 55.8476 6.86611C55.5038 6.69495 55.1148 6.64308 54.7332 6.59789C52.8142 6.36968 50.7767 6.26299 49.0444 7.1195C47.1825 8.03972 47.3314 10.1402 49.4023 10.5388C51.4057 10.9248 54.3346 10.3032 55.8913 8.95995Z" fill="#E9DBC0"/>
<path d="M21.6393 43.1319C21.9846 42.9414 22.2987 42.6903 22.6648 42.5436C23.0308 42.3961 23.4835 42.3739 23.7895 42.6236C24.1118 42.8866 24.1673 43.3512 24.1659 43.7668C24.1644 44.0928 24.1414 44.4255 24.0169 44.7271C23.7228 45.4369 22.9463 45.811 22.2069 46.0192C21.2992 46.2741 14.5539 46.4541 15.5601 44.3366C15.8616 43.7009 17.4457 43.7216 18.0036 43.6816C19.2299 43.5957 20.519 43.7483 21.6393 43.1319Z" fill="#CCA899"/>
<path d="M66.7872 58.68C67.2992 58.6378 67.8104 58.5956 68.3224 58.5533C68.6751 58.5245 69.0463 58.4978 69.3678 58.6482C69.9761 58.932 70.1547 59.7581 69.9457 60.396C69.6945 61.1621 69.0189 61.7393 68.2609 62.0134C67.1569 62.4135 64.6148 62.5484 64.1014 61.1547C63.5375 59.624 65.6506 58.7734 66.7872 58.68Z" fill="#CCA899"/>
<path d="M40.2631 10.3499C40.558 9.93645 40.8328 9.39855 40.6061 8.94511C40.4505 8.6354 40.1075 8.47315 39.7845 8.34646C39.2384 8.13085 38.6657 7.94784 38.0789 7.95377C36.4481 7.96933 32.9487 10.118 34.5595 12.0229C36.2606 14.0337 39.1821 11.8636 40.2631 10.3499Z" fill="#E9DBC0"/>
<path d="M33.8223 22.6388C34.1327 22.8285 34.4573 23.0322 34.6299 23.3516C34.7558 23.5842 34.7884 23.8554 34.8033 24.1191C34.8218 24.4644 34.8129 24.8119 34.7781 25.1564C34.7388 25.5432 34.6662 25.9262 34.5595 26.3004C34.4832 26.5723 34.3661 26.8657 34.1105 26.9865C33.9423 27.0665 33.7467 27.0532 33.5615 27.0384C31.6277 26.8843 30.231 26.1922 30.5104 24.0162C30.7749 21.9549 32.1871 21.6385 33.8223 22.6388Z" fill="#E9DBC0"/>
</svg>
