<svg width="80" height="80" viewBox="0 0 80 80" fill="none" xmlns="http://www.w3.org/2000/svg">
<path d="M80 40.0005C80 62.092 62.0912 79.9997 39.9998 79.9997C17.9086 79.9997 0 62.092 0 40.0005C0 17.9091 17.9086 0.000274658 39.9998 0.000274658C62.0912 0.000274658 80 17.9091 80 40.0005Z" fill="#FF4953"/>
<path d="M41.6749 62.8502C42.1841 61.0176 44.3329 59.5509 43.7962 57.7253C43.3479 56.2057 41.3628 55.8032 40.3413 54.5936C38.9731 52.9744 39.704 50.5055 40.6676 48.6169C41.0365 47.8942 41.4421 47.1299 41.3669 46.3228C41.3262 45.8858 41.1443 45.4741 40.9176 45.099C39.152 42.1788 35.0517 41.7183 31.7116 42.4197C28.3716 43.12 25.142 44.6508 21.7318 44.5115C20.221 44.4495 18.6189 43.984 17.6886 42.7917C17.0172 41.9297 16.7885 40.8147 16.3795 39.8023C15.1673 36.7987 12.133 34.6215 8.90073 34.4334C10.942 34.5514 6.77686 27.3508 5.41137 26.744C4.49819 26.3384 3.48337 26.1413 2.46926 26.1402C0.873538 30.4591 0 35.1267 0 40.0005C0 62.092 17.9086 79.9997 39.9998 79.9997C41.9564 79.9997 43.8785 79.8524 45.76 79.581C47.2064 76.5743 47.3111 72.9243 45.4713 70.1707C43.8816 67.7902 40.9095 65.6099 41.6749 62.8502Z" fill="#DD3253"/>
<path d="M42.7442 21.8193C41.6179 20.7653 41.5295 18.4945 39.9977 18.3156C39.4051 18.2465 38.842 18.5718 38.3684 18.9347C37.2614 19.7834 36.3792 20.8944 35.2875 21.7634C34.1968 22.6335 32.7677 23.2637 31.4199 22.9039C30.0721 22.5441 29.0943 20.8435 29.8536 19.6736C30.3516 18.9072 31.4596 18.4468 31.4464 17.533C31.4362 16.8733 30.8223 16.4129 30.2998 16.0103C28.7487 14.813 27.4549 13.0433 27.5084 11.0846C27.5613 9.12593 30.8375 6.48723 30.5793 5.87533C32.2067 6.16197 33.5656 4.22971 33.2343 2.61051C33.091 1.90306 32.725 1.28913 32.2432 0.758547C23.0964 2.55664 15.0697 7.46913 9.31199 14.3505C9.68371 15.0284 10.0295 15.7196 10.2257 16.4606C10.7343 18.3827 10.3849 20.6352 11.958 22.1497C12.6656 22.8307 13.6466 23.1773 14.3398 23.8736C15.6514 25.1889 15.6196 27.3946 16.8111 28.8196C17.8851 30.1034 19.7532 30.514 20.8011 31.8192C21.3371 32.4859 21.6047 33.3235 22.0113 34.0757C23.1913 36.259 25.6622 37.679 28.1429 37.5997C30.623 37.5194 32.9974 35.9439 34.0342 33.6884C34.9968 31.5945 35.0293 28.8247 36.9748 27.5887C38.2322 26.7877 39.8595 26.9636 41.3221 27.2502C42.7858 27.5379 44.3298 27.9028 45.7346 27.4037C47.1403 26.9056 48.1883 25.1167 47.3476 23.8848C46.379 22.4658 43.9985 22.9933 42.7442 21.8193Z" fill="#DD3253"/>
<path d="M41.871 0.0480747C40.9196 1.31254 40.1095 3.50705 40.5141 4.85689C40.8332 5.92416 41.993 6.224 42.5053 7.10323C43.3723 8.58826 43.046 9.33027 43.0216 11.0013C42.9851 13.5313 45.4916 15.3131 47.8477 16.235C50.2049 17.1569 52.8913 17.8379 54.354 19.9023C56.4967 22.9283 54.8439 27.1445 52.749 30.204C52.4919 30.5781 52.2205 30.9725 52.1829 31.4248C52.0995 32.4158 53.1648 33.1365 54.1487 33.2767C56.2121 33.5715 58.1515 32.3813 60.0583 31.5397C61.9652 30.698 64.4677 30.2874 65.911 31.7917C66.8512 32.7716 67.0047 34.2343 67.3412 35.5495C67.6786 36.8648 68.4776 38.3031 69.8264 38.4535C71.4527 38.6355 72.581 36.8669 73.0323 35.2944C73.4825 33.722 73.8291 31.8781 75.2542 31.0751C76.292 30.4897 77.6581 30.6238 78.8524 30.4886C74.7257 13.575 59.851 0.876479 41.871 0.0480747Z" fill="#DD3253"/>
<path d="M28.9561 78.4436C29.9471 78.099 30.8437 77.5298 31.3966 76.6546C32.222 75.3495 31.9089 73.2953 30.495 72.6773C29.26 72.1365 27.356 72.5726 26.8859 71.3102C26.4635 70.1758 27.8431 69.2468 28.9734 68.8148C29.3241 65.9118 28.4967 62.8828 26.7176 60.5602C26.425 60.178 26.0922 59.7755 26.0755 59.2937C26.0617 58.8963 26.2681 58.5283 26.3685 58.1441C26.6481 57.0769 25.9807 55.85 24.9328 55.5044C23.6841 55.0937 22.3429 55.8693 21.4487 56.8339C20.5554 57.7975 19.8887 58.9837 18.8449 59.7816C16.5011 61.5726 13.1932 60.855 10.2928 60.3224C9.69565 60.2126 9.08141 60.115 8.48466 60.2258C7.59649 60.3905 6.84879 60.8591 6.27104 61.4903C11.4546 69.6086 19.4833 75.7266 28.9561 78.4436Z" fill="#C52653"/>
<path d="M73.9857 19.4815C74.0741 19.4378 74.1473 19.3758 74.2286 19.3239C69.306 11.1893 61.5708 4.95339 52.3669 1.96199C52.2987 2.1358 52.2489 2.3198 52.2276 2.51597C52.0975 3.75095 53.3894 4.53055 53.4799 5.72589C53.5744 6.97307 52.191 8.26195 52.8507 9.47762C53.1129 9.9584 53.6476 10.2125 54.1477 10.4361C56.5099 11.4892 59.0236 12.5666 61.5891 12.2342C61.9032 13.3848 62.2193 14.5354 62.5344 15.6861C59.9658 17.0806 58.497 20.2479 59.0917 23.1092C60.0187 23.9955 61.5159 23.0858 62.4063 22.1629C63.2977 21.2389 64.6395 20.2021 65.7027 20.9197C66.1601 21.2277 66.4111 21.8051 66.9132 22.0328C68.0242 22.5349 68.9268 21.0509 69.9666 20.4146C71.1488 19.6919 72.7426 20.0954 73.9857 19.4815Z" fill="#C52653"/>
<path d="M77.8909 52.8118C77.0452 52.2985 76.1894 51.8106 75.7279 50.9589C75.178 49.9455 75.3579 48.7146 75.3437 47.5609C75.3294 46.4082 74.9473 45.0635 73.8607 44.6752C72.6043 44.2269 71.3826 45.3247 70.4149 46.2415C69.4473 47.1604 67.8992 47.999 66.8889 47.1289C66.2892 46.6105 66.2139 45.7252 66.154 44.9344C66.0533 43.6323 65.848 42.2662 65.0481 41.2335C64.2471 40.1998 62.6716 39.6611 61.5891 40.3939C60.0268 41.4541 60.7017 43.9291 61.8493 45.4284C62.9979 46.9276 64.5531 48.4909 64.2685 50.3581C64.0032 52.1003 62.2579 53.1483 60.7333 54.0326C59.2076 54.9159 57.5416 56.2058 57.6219 57.9673C57.6524 58.6564 57.9614 59.3049 58.0427 59.99C58.5001 63.8312 52.1473 65.8986 52.6159 69.7387C52.8832 71.9272 55.1255 73.1652 56.0342 75.0456C56.2131 75.4156 56.3574 75.9055 56.5048 76.4331C66.526 71.8855 74.3343 63.3321 77.8909 52.8118Z" fill="#DD3253"/>
<path d="M46.075 42.5986C46.571 43.244 46.9908 44.0755 46.7337 44.848C46.5324 45.4528 45.9632 45.8654 45.703 46.4469C45.1734 47.6249 46.076 48.9534 47.0783 49.7676C47.374 50.0095 47.6891 50.2382 47.9128 50.5472C48.6385 51.5494 48.1811 52.9308 48.1648 54.1678C48.1628 54.3253 48.175 54.4992 48.2848 54.611C48.3945 54.7238 48.5663 54.74 48.7229 54.7461C49.5858 54.7776 50.4793 54.676 51.2335 54.2562C51.9887 53.8364 52.5782 53.0497 52.5823 52.1857C52.5854 51.3787 52.0975 50.6204 52.1442 49.8143C52.2073 48.7328 53.1769 47.9634 54.0379 47.3047C54.3154 47.0933 54.6 46.8646 54.7412 46.5444C55.0228 45.9051 54.6366 45.1915 54.4363 44.5227C53.9931 43.0326 56.6522 43.4138 55.8471 40.3847C55.7831 40.1449 52.3994 39.5787 51.9836 39.6163C50.2709 39.7739 49.5746 39.9477 48.0103 39.0502C44.7272 37.1687 44.1936 40.1479 46.075 42.5986Z" fill="#DD3253"/>
<path d="M74.6617 59.9361C74.6515 59.9209 74.6444 59.9036 74.6342 59.8894C73.8261 58.7022 72.0382 58.1472 70.8815 58.999C70.1293 58.6473 70.36 57.5505 70.4841 56.7292C70.6152 55.8663 70.4434 54.8966 69.7939 54.3131C69.1444 53.7307 67.9561 53.7561 67.513 54.5073C67.2873 54.8895 67.2883 55.3591 67.2955 55.8022C67.3229 57.5231 67.3493 59.2439 67.3778 60.9658C67.3869 61.5736 67.388 62.216 67.0851 62.7425C66.523 63.7183 65.2148 63.883 64.0957 64.006C62.9756 64.1269 61.6501 64.4898 61.3269 65.5682C62.6025 66.2889 62.9593 68.2334 62.0211 69.3586C61.7507 69.6838 61.394 69.9451 61.1978 70.3201C60.6825 71.302 61.4855 72.4262 62.3596 73.1459C67.3971 69.7398 71.6154 65.2216 74.6617 59.9361Z" fill="#C52653"/>
</svg>
