<svg width="80" height="80" viewBox="0 0 80 80" fill="none" xmlns="http://www.w3.org/2000/svg">
<path d="M80 40C80 62.0916 62.0917 80 40.0002 80C17.9088 80 0 62.0916 0 40C0 17.9084 17.9088 0 40.0002 0C62.0917 0 80 17.9084 80 40Z" fill="#A3AEBA"/>
<path d="M70.4427 30.1047C70.9447 31.0944 71.077 32.2242 71.2662 33.3189C71.544 34.9156 71.9596 36.4883 72.5075 38.0139C72.8826 39.0617 73.7542 40.3007 74.8052 39.9333C76.0476 39.5002 76.3352 37.0898 77.5852 37.5021C77.9789 37.6311 78.307 38.0598 78.7084 37.956C79.019 37.8761 79.1546 37.5207 79.2399 37.2123C79.4203 36.5594 79.58 35.8945 79.7058 35.223C77.3424 15.3854 60.4731 0 40.0002 0C36.4656 0 33.0392 0.46372 29.7747 1.32442C29.3317 3.14424 29.0332 5.43647 29.2464 6.91508C29.5472 8.99081 30.2362 8.37074 31.9423 8.9121C33.4952 9.40533 34.4631 10.4519 35.443 11.7195C35.9504 12.3757 36.4743 13.069 36.6044 13.8882C36.9314 15.9617 34.6851 17.5792 34.3614 19.6528C34.1569 20.9629 34.7496 22.2523 35.3522 23.4335C35.9176 24.5402 36.5596 25.693 37.6368 26.312C38.7152 26.9332 40.3502 26.7483 40.8849 25.6262C44.144 27.8103 47.7508 29.4737 51.5271 30.5345C52.297 30.751 53.1304 30.9403 53.8806 30.6658C55.0913 30.2228 55.5758 28.8153 56.0471 27.6166C56.5196 26.4169 57.4295 25.0882 58.7134 25.2052C60.5398 25.3725 61.1938 28.2936 63.0267 28.3231C63.6063 28.333 64.1368 28.029 64.6803 27.8299C66.802 27.0567 69.4212 28.0913 70.4427 30.1047Z" fill="#93A1AF"/>
<path d="M40.0002 0C39.145 0 38.2973 0.0284877 37.4563 0.0820762C37.6761 0.713108 37.9878 1.31355 38.3826 1.84178C38.6713 2.22893 39.1875 2.55699 39.4281 2.94851C39.9235 3.75452 39.7015 3.45597 39.8371 4.38338C40.0504 5.8423 40.3588 6.63081 41.1003 7.98364C42.51 10.5559 42.6511 13.6575 40.7744 16.0766C40.4091 16.548 39.9706 16.9974 39.8284 17.576C39.5233 18.8205 40.8302 19.9864 42.1108 20.0454C43.3915 20.1034 44.5726 19.4177 45.6706 18.755C46.3541 20.4129 45.7264 22.4919 46.7391 23.9705C47.7966 25.5169 50.3011 25.5082 51.6966 24.2581C52.2106 23.7977 52.6415 23.1908 53.2966 22.9742C54.6297 22.5346 56.2767 23.9071 57.3835 23.0431C57.6853 22.8069 57.8625 22.446 58.1348 22.1758C58.6947 21.6192 59.6659 21.5448 60.3057 22.0074C60.9444 22.4711 61.1762 23.4172 60.8219 24.1226C62.5225 24.338 64.2231 24.5545 65.9248 24.77C66.6553 24.863 67.4067 24.9625 68.0541 25.3168C68.8328 25.7433 69.373 26.4914 69.887 27.2143C71.3252 29.2397 72.7644 31.2651 74.2036 33.2916C74.7045 33.996 75.2732 34.7484 76.1098 34.966C76.9858 35.1924 77.9286 34.7352 78.5126 34.0441C78.8669 33.6263 79.1053 33.132 79.2967 32.6147C75.8299 14.0545 59.5654 0 40.0002 0Z" fill="#8996A3"/>
<path d="M74.2442 19.7195C74.2836 19.6616 74.3175 19.6003 74.3536 19.5391C69.22 10.9277 60.9456 4.41404 51.1083 1.57275C51.1105 1.58259 51.1105 1.59135 51.1127 1.60228C51.4047 3.03167 51.7393 3.26898 50.8622 4.56713C50.1842 5.5711 49.6833 6.493 49.7948 7.75835C49.8091 7.92568 49.8397 8.10394 49.9567 8.22534C50.1481 8.42547 50.5123 8.40581 50.6643 8.63657C50.7649 8.78859 50.7321 8.98871 50.6818 9.16369C50.4762 9.85815 50.0354 10.4619 49.7883 11.1421C49.54 11.8246 49.5378 12.6907 50.0879 13.1632C50.3723 13.4082 50.7889 13.535 50.9388 13.8806C51.0186 14.0654 51.0022 14.2754 51.0197 14.4766C51.0864 15.2575 51.6836 15.9115 52.3813 16.2658C53.079 16.6201 53.873 16.7274 54.6495 16.8291C55.1362 16.8925 55.6228 16.957 56.1084 17.0205C57.7871 17.2414 59.4659 17.4623 61.1512 17.611C61.7144 17.6591 62.3071 17.7116 62.7719 18.0321C63.2378 18.3525 63.4992 19.0437 63.1646 19.4986C63.7048 19.2427 64.361 19.4724 64.8356 19.8366C65.3103 20.1997 65.6799 20.6874 66.1567 21.0494C66.6084 21.3928 67.1421 21.6116 67.6867 21.7669C70.0435 22.4362 72.8892 21.7603 74.2442 19.7195Z" fill="#7E8A96"/>
<path d="M39.8613 71.0748C37.8075 69.524 36.5389 67.1759 35.3337 64.9023C35.0461 64.3587 34.7497 63.7867 34.7486 63.171C34.7475 62.1342 35.5677 61.2746 35.7624 60.2576C35.9866 59.0896 35.3632 57.9434 35.186 56.7677C34.9006 54.8768 35.7777 53.0264 36.1003 51.142C36.423 49.2566 35.8324 46.8561 33.9798 46.3858C35.15 45.8051 36.3606 45.1905 37.1666 44.1613C37.9726 43.1322 38.2428 41.5584 37.428 40.537C36.9391 39.9235 36.1681 39.6194 35.4343 39.3416C33.4198 38.5783 31.4064 37.816 29.393 37.0537C28.5816 36.7464 27.6006 36.4599 26.9072 36.9805C26.3779 37.3796 26.2324 38.1036 25.8475 38.6428C24.8457 40.0394 22.7028 39.7496 21.0893 39.1557C19.4766 38.5608 17.5974 37.828 16.1441 38.7478C16.0851 40.3598 14.8573 41.6951 13.5189 42.5952C11.6913 43.8245 9.33398 44.5343 7.26679 43.7742C5.19905 43.0152 3.80466 40.3948 4.88299 38.4744C2.62474 36.1438 1.55078 33.3911 1.16079 30.4328C0.4076 33.4983 0 36.7016 0 40C0 62.0916 17.9088 80 40.0002 80C40.4257 80 40.8456 79.9814 41.2678 79.9683C41.7894 79.4586 42.2433 78.8878 42.5867 78.2414C43.4583 76.6042 43.4955 74.4334 42.3155 73.0029C41.6516 72.198 40.6947 71.7036 39.8613 71.0748Z" fill="#93A1AF"/>
<path d="M2.50855 53.9582C6.66393 65.1156 15.6569 73.9095 26.9378 77.8062C27.1685 77.5251 27.384 77.2036 27.5863 76.8383C28.2709 75.6003 28.7182 74.0539 28.0369 72.7109C27.5371 71.7244 25.3156 71.0453 25.4463 69.8784C25.4904 69.4923 25.7927 69.1664 25.8168 68.7782C25.8682 67.9547 24.7944 67.6233 24.2112 67.0404C23.28 66.1097 23.7088 64.455 24.6124 63.4981C25.5159 62.54 26.7672 61.9834 27.7394 61.0964C30.4177 58.6532 30.0415 53.6903 27.0264 51.6769C26.3472 51.2241 25.5729 50.907 24.9584 50.3678C24.1989 49.7029 23.7473 48.7525 23.0463 48.0252C20.9329 45.8303 16.6203 46.6811 15.4989 49.5137C13.377 49.8899 11.5425 51.5719 10.9855 53.6531C10.8677 54.0927 10.7834 54.5827 10.4387 54.8801C10.2947 55.0059 10.1161 55.0847 9.93588 55.1481C7.53797 55.9891 5.01276 54.2404 2.50855 53.9582Z" fill="#8996A3"/>
<path d="M17.7477 73.2151C17.9011 73.167 18.0557 73.1243 18.2137 73.0948C18.9105 72.9635 19.6316 73.0434 20.3331 72.9384C21.035 72.8345 21.7736 72.478 22.015 71.8119C22.3559 70.867 21.5622 69.9243 20.8346 69.2309C20.3185 68.7399 19.8021 68.2489 19.2856 67.7567C18.0514 66.5821 16.7203 65.1746 16.8233 63.474C16.8908 62.3716 17.5465 61.1588 16.915 60.2521C16.5639 59.7469 15.921 59.5467 15.3199 59.4111C14.9875 59.3357 14.6407 59.27 14.307 59.34C12.858 59.6462 12.8459 62.0063 11.4867 62.5925C10.3801 63.0704 9.26427 62.1419 8.14373 62.2754C7.76872 62.3191 7.40508 62.4667 7.06934 62.6756C9.93336 66.826 13.5577 70.4044 17.7477 73.2151Z" fill="#7E8A96"/>
<path d="M54.269 41.2479C55.4873 41.9161 56.9538 41.1855 58.2564 40.7033C59.8225 40.1247 61.5252 39.918 63.1843 40.1039C64.4781 41.7881 65.7729 43.4724 67.0667 45.1577C67.3609 45.5382 67.6638 45.9462 67.7163 46.4241C67.7994 47.1875 67.234 47.8448 66.9037 48.5359C65.8473 50.7462 67.0131 53.9068 65.1452 55.4926C64.3578 56.1619 63.2455 56.2997 62.3739 56.8542C61.3393 57.5125 60.7586 58.6707 60.1484 59.7348C59.2844 61.2441 58.2695 62.6658 57.1234 63.9727C56.7723 64.373 56.3852 64.7787 55.8788 64.9406C55.2904 65.1298 54.6539 64.9581 54.0601 64.7864C52.5705 64.3544 51.0799 63.9235 49.5893 63.4915C48.7231 63.2411 47.8132 62.9633 47.1975 62.306C46.5818 61.6476 46.4155 60.4785 47.0969 59.8879C47.5147 59.5259 48.149 59.4527 48.4978 59.024C48.955 58.4618 48.675 57.5978 48.2025 57.0477C47.028 55.6785 44.8965 55.2717 44.0205 53.6946C43.3523 52.4949 43.6388 51.0163 43.8652 49.6624C44.3934 46.5072 42.9061 39.8644 45.8928 37.8248C47.1756 36.9488 48.9265 37.0384 50.3242 37.5667C52.3278 38.3235 52.5848 40.3248 54.269 41.2479Z" fill="#93A1AF"/>
<path d="M54.7578 44.6961C55.5496 45.1303 56.5021 44.6546 57.3497 44.3418C58.3668 43.9667 59.4735 43.8311 60.5519 43.9514C61.3929 45.0461 62.2339 46.142 63.0749 47.2367C63.2652 47.4839 63.4631 47.7496 63.497 48.0602C63.5517 48.5545 63.1843 48.9821 62.9688 49.4327C62.282 50.8687 63.0399 52.9225 61.826 53.9538C61.3141 54.3869 60.5923 54.4777 60.0247 54.8386C59.3522 55.2662 58.9759 56.0186 58.5789 56.7098C58.0168 57.6897 57.3574 58.6149 56.6126 59.4647C56.384 59.7239 56.1336 59.9885 55.8044 60.0935C55.4216 60.216 55.0082 60.1045 54.6233 59.9929C53.6543 59.7129 52.6853 59.4319 51.7164 59.1508C51.1542 58.9889 50.5626 58.8085 50.1623 58.3809C49.762 57.9533 49.6538 57.1943 50.0967 56.8093C50.3679 56.5742 50.7802 56.5271 51.0077 56.2483C51.3041 55.883 51.1225 55.3209 50.8163 54.9632C50.0519 54.0741 48.6673 53.8105 48.0975 52.7847C47.6634 52.0049 47.8493 51.0436 47.9969 50.1643C48.3392 48.1138 47.3735 43.7972 49.3147 42.4706C50.1481 41.9019 51.2855 41.9599 52.1943 42.3022C53.4968 42.7954 53.6631 44.0957 54.7578 44.6961Z" fill="#8996A3"/>
<path d="M11.1545 37.851C11.5709 37.5808 11.8349 37.1357 12.1114 36.7234C12.809 35.6844 13.8308 34.6871 15.0822 34.686C16.4197 34.6849 17.6949 35.831 18.9633 35.4078C19.7745 35.1376 20.2675 34.2704 20.3563 33.4206C20.4457 32.5698 20.209 31.7233 19.9753 30.9009C19.9552 30.832 19.9343 30.7587 19.8826 30.7095C19.8133 30.6417 19.7079 30.6296 19.6109 30.6242C18.5724 30.5574 17.5236 30.6504 16.5124 30.8976C14.0632 31.4947 12.1208 27.5095 10.746 30.5553C10.2572 31.638 8.45023 39.6063 11.1545 37.851Z" fill="#93A1AF"/>
<path d="M25.7918 14.2393L29.5386 13.5897C29.5386 13.5897 31.9566 12.2915 30.8214 15.5374C29.6852 18.7812 29.6851 19.1093 30.1729 20.0006C30.6585 20.8908 35.0396 24.6223 33.0929 25.9205C31.1463 27.2175 29.1755 27.5424 29.1755 27.5424L23.0341 23.486C23.0341 23.486 14.9928 24.1356 15.0389 23.6479C15.0842 23.1623 16.0228 17.5126 16.0228 17.5126H19.6271L22.0967 14.2393H25.7918Z" fill="#93A1AF"/>
</svg>
