<svg width="80" height="80" viewBox="0 0 80 80" fill="none" xmlns="http://www.w3.org/2000/svg">
<path d="M0 40.0428C0 17.9749 17.8955 0.085683 39.9711 0.085683C62.0467 0.085683 79.9426 17.9749 79.9426 40.0428C79.9426 62.1107 62.0467 79.9999 39.9711 79.9999C17.8955 79.9999 0 62.1107 0 40.0428Z" fill="#A3AEBA"/>
<path d="M9.55049 49.9277C9.04887 48.939 8.91665 47.8104 8.72758 46.7169C8.45 45.1219 8.0347 43.5509 7.48718 42.0269C7.11233 40.9803 6.24134 39.7426 5.19111 40.1096C3.94963 40.5422 3.66221 42.95 2.41308 42.5382C2.01965 42.4093 1.69179 41.981 1.29072 42.0848C0.980346 42.1646 0.844836 42.5196 0.759593 42.8277C0.579272 43.4799 0.419714 44.1441 0.294036 44.8149C2.65569 64.6312 19.5129 79.9999 39.9711 79.9999C43.5032 79.9999 46.9271 79.5368 50.1893 78.6771C50.6319 76.8592 50.9303 74.5694 50.7172 73.0924C50.4166 71.0189 49.7281 71.6383 48.0233 71.0975C46.4714 70.6048 45.5042 69.5593 44.525 68.2932C44.018 67.6377 43.4945 66.9451 43.3644 66.1268C43.0377 64.0555 45.2824 62.4397 45.6059 60.3684C45.8102 59.0596 45.2179 57.7716 44.6158 56.5917C44.0508 55.4862 43.4092 54.3347 42.3328 53.7163C41.2552 53.0958 39.6214 53.2804 39.087 54.4013C35.8303 52.2196 32.2261 50.558 28.4525 49.4983C27.6831 49.282 26.8503 49.093 26.1007 49.3672C24.8909 49.8096 24.4067 51.2157 23.9357 52.413C23.4636 53.6115 22.5543 54.9388 21.2713 54.8219C19.4463 54.6548 18.7928 51.7368 16.9611 51.7073C16.3819 51.6975 15.8519 52.0012 15.3087 52.2C13.1886 52.9724 10.5712 51.9389 9.55049 49.9277Z" fill="#93A1AF"/>
<path d="M39.9711 79.9999C40.8257 79.9999 41.6728 79.9716 42.5132 79.9181C42.2935 79.2877 41.9821 78.6879 41.5875 78.1603C41.299 77.7735 40.7832 77.4458 40.5428 77.0547C40.0477 76.2496 40.2696 76.5478 40.1341 75.6214C39.921 74.164 39.6128 73.3764 38.8718 72.025C37.4631 69.4555 37.3221 66.3573 39.1975 63.9407C39.5625 63.4699 40.0007 63.0209 40.1428 62.4429C40.4477 61.1997 39.1418 60.0351 37.862 59.9761C36.5823 59.9182 35.402 60.6032 34.3048 61.2652C33.6217 59.609 34.2491 57.5323 33.2371 56.0552C32.1803 54.5105 29.6776 54.5192 28.2832 55.7679C27.7695 56.2279 27.3389 56.8342 26.6843 57.0505C25.3521 57.4896 23.7063 56.1186 22.6003 56.9817C22.2987 57.2176 22.1217 57.5782 21.8495 57.848C21.29 58.4041 20.3196 58.4784 19.6802 58.0162C19.042 57.553 18.8103 56.608 19.1644 55.9034C17.465 55.6882 15.7656 55.4719 14.0652 55.2566C13.3351 55.1638 12.5843 55.0644 11.9374 54.7104C11.1593 54.2843 10.6194 53.5371 10.1058 52.815C8.66865 50.7917 7.23046 48.7685 5.79227 46.7441C5.29174 46.0406 4.72345 45.2889 3.88742 45.0715C3.01205 44.8454 2.07001 45.3021 1.48643 45.9925C1.13235 46.4098 0.894099 46.9036 0.702849 47.4204C4.16719 65.9607 20.4199 79.9999 39.9711 79.9999Z" fill="#8996A3"/>
<path d="M32.0992 74.6919C32.5179 74.6383 32.9311 74.5712 33.3394 74.4922C33.1922 74.1966 33.0018 73.9217 32.7753 73.6874C32.6096 73.5157 32.3363 73.3872 32.1939 73.2103C31.9007 72.8461 32.0282 72.9786 31.9035 72.5323C31.7074 71.8303 31.5068 71.463 31.0588 70.8461C30.207 69.6732 29.943 68.1612 30.7097 66.8573C30.8589 66.6032 31.0454 66.3553 31.0786 66.0627C31.1498 65.4333 30.4367 64.9436 29.806 64.9949C29.1754 65.0468 28.6402 65.4571 28.1443 65.8509C27.7055 65.0808 27.8821 64.022 27.2934 63.3604C26.6785 62.6685 25.4529 62.8298 24.8482 63.5303C24.6255 63.7883 24.4527 64.1129 24.1456 64.2602C23.5205 64.5593 22.6279 63.9896 22.1404 64.4826C22.0074 64.6174 21.9434 64.8055 21.827 64.955C21.5879 65.2631 21.1171 65.3605 20.7748 65.1737C20.433 64.9864 20.26 64.5371 20.3891 64.1689C19.543 64.1699 18.6968 64.1704 17.8501 64.1714C17.4866 64.1717 17.1126 64.17 16.7733 64.0368C16.3653 63.8765 16.0538 63.5436 15.7567 63.2213C14.9253 62.3183 14.0934 61.4154 13.2614 60.5119C12.9719 60.198 12.6462 59.8647 12.2229 59.8104C11.7798 59.7543 11.347 60.0376 11.1045 60.4132C10.9573 60.6402 10.8716 60.8976 10.8105 61.1632C13.6742 70.047 22.5204 75.9188 32.0992 74.6919Z" fill="#D9D9D9"/>
<path d="M50.6303 33.7169C50.6303 34.2688 50.1829 34.7162 49.631 34.7162C49.0791 34.7162 48.6317 34.2688 48.6317 33.7169C48.6317 33.165 49.0791 32.7176 49.631 32.7176C50.1829 32.7176 50.6303 33.165 50.6303 33.7169Z" fill="#7E8A96"/>
<path d="M63.2879 48.0346C63.2879 50.2414 61.4983 52.0303 59.2907 52.0303C57.0832 52.0303 55.2936 50.2414 55.2936 48.0346C55.2936 45.8278 57.0832 44.0389 59.2907 44.0389C61.4983 44.0389 63.2879 45.8278 63.2879 48.0346Z" fill="#8996A3"/>
<path d="M75.9455 30.0534C75.9455 33.7314 72.9628 36.713 69.2836 36.713C65.6043 36.713 62.6217 33.7314 62.6217 30.0534C62.6217 26.3755 65.6043 23.3939 69.2836 23.3939C72.9628 23.3939 75.9455 26.3755 75.9455 30.0534Z" fill="#93A1AF"/>
<path d="M28.4546 41.5269C28.2325 40.955 27.7511 40.5217 27.2315 40.1985C26.3166 39.6302 25.232 39.3416 24.1564 39.3807C23.4688 39.4056 22.6961 39.6302 22.4012 40.25L22.2182 40.4196C21.6355 41.8447 22.1764 43.6428 23.4493 44.5112C24.7213 45.3796 26.5937 45.2278 27.7094 44.1658C28.412 43.4972 28.8055 42.4299 28.4546 41.5269Z" fill="#8996A3"/>
<path d="M46.9408 8.76616C48.0472 8.8409 49.085 9.30447 50.1217 9.70133C51.6348 10.2786 53.1977 10.7253 54.7877 11.0344C55.8791 11.2476 57.3886 11.1324 57.6101 10.0425C57.8732 8.7548 55.9504 7.27649 56.9432 6.41409C57.2553 6.14205 57.7911 6.07942 57.907 5.68181C57.9971 5.3744 57.7613 5.07642 57.54 4.84564C57.0716 4.35719 56.5822 3.88043 56.0699 3.42941C37.8274 -4.6764 15.9946 1.94443 5.53179 19.5186C3.72539 22.5528 2.37254 25.7309 1.44328 28.9729C2.77962 30.2828 4.5954 31.7102 5.97407 32.2825C7.91022 33.0847 7.72988 32.1765 9.06665 30.9886C10.2838 29.9075 11.6772 29.6113 13.2664 29.4177C14.0892 29.3174 14.9524 29.2219 15.7223 29.5287C17.67 30.3073 17.9109 33.0619 19.526 34.3991C20.5466 35.244 21.9567 35.3939 23.2789 35.48C24.5183 35.5601 25.8362 35.5979 26.9183 34.9895C28.0028 34.3812 28.6797 32.8832 27.9894 31.8509C31.5304 30.1691 34.8021 27.9228 37.6429 25.2231C38.2224 24.6728 38.8107 24.0541 38.9584 23.2699C39.1968 22.0043 38.2357 20.8694 37.4473 19.8524C36.6586 18.8339 35.9826 17.374 36.7392 16.3317C37.8163 14.8494 40.6589 15.7803 41.621 14.222C41.9257 13.7294 41.9357 13.1188 42.0425 12.5505C42.4629 10.3343 44.6898 8.6144 46.9408 8.76616Z" fill="#93A1AF"/>
<path d="M61.9555 17.4003C61.9555 18.8715 60.7625 20.0641 59.2908 20.0641C57.8191 20.0641 56.626 18.8715 56.626 17.4003C56.626 15.9291 57.8191 14.7365 59.2908 14.7365C60.7625 14.7365 61.9555 15.9291 61.9555 17.4003Z" fill="#7E8A96"/>
<path d="M79.9426 41.708C79.9426 41.708 79.9426 69.3452 51.2965 78.3355C31.9804 78.3355 19.3195 61.3752 19.3195 40.043C19.3195 18.7107 32.3135 1.75055 51.6296 1.75055C82.6074 12.406 79.9426 41.708 79.9426 41.708Z" fill="black" fill-opacity="0.5"/>
</svg>
