<svg width="120" height="80" viewBox="0 0 120 80" fill="none" xmlns="http://www.w3.org/2000/svg">
<path d="M100.025 40C100.025 62.0911 82.1169 80 60.0249 80C37.9338 80 20.0249 62.0911 20.0249 40C20.0249 17.9089 37.9338 0 60.0249 0C82.1169 0 100.025 17.9089 100.025 40Z" fill="#FFC062"/>
<path d="M98.0864 44.8637C97.1365 44.7441 96.1818 45.0303 95.3006 45.4032C93.0853 46.3418 91.1345 47.8454 88.8806 48.689C87.3949 49.2454 85.8141 49.4996 84.2428 49.7105C77.7324 50.5832 70.8934 50.716 64.834 48.1824C62.0792 47.03 59.4949 45.3326 56.5471 44.8571C53.7122 44.4014 50.8191 45.1226 47.9522 44.9767C44.1693 44.7846 40.4928 43.0061 37.9941 40.16C36.1328 38.0407 34.826 35.3019 32.364 33.9274C31.0987 33.2222 29.6111 32.9341 28.4427 32.0783C26.0184 30.3008 26.1154 24.8966 24.0724 22.9609C22.7703 25.6093 21.761 28.4263 21.0737 31.3675C21.5558 31.9672 22.1056 32.5368 22.3617 33.2599C22.5792 33.8746 22.5613 34.5497 22.7383 35.1777C23.0838 36.3988 24.1091 37.2923 25.1259 38.0492C26.7707 39.2741 28.5294 40.3445 30.3728 41.2418C31.4075 41.7455 32.477 42.2002 33.4053 42.879C34.3383 43.5607 35.0972 44.4457 35.9294 45.2469C40.3959 49.5504 46.8065 51.2893 53.0052 51.5332C55.8927 51.6471 58.7953 51.4729 61.6669 51.7959C66.5683 52.3466 71.3275 54.336 76.2505 54.0366C80.6247 53.7711 84.7249 51.713 89.0905 51.3308C92.0957 51.0681 95.4625 51.5021 98.0092 50.12C98.4207 48.4875 98.7238 46.8135 98.9262 45.1075C98.6589 44.9861 98.3736 44.9004 98.0864 44.8637Z" fill="#FFAA62"/>
<path d="M91.0761 16.3715C89.3579 16.6624 87.6255 16.9439 85.9393 16.8591C80.9504 16.6096 76.6243 13.144 71.6683 12.517C69.0161 12.1818 66.3348 12.6808 63.6619 12.7128C60.9881 12.7458 58.0977 12.1969 56.2834 10.233C55.2196 9.08058 54.6472 7.57231 53.8478 6.22316C53.2782 5.2619 51.6702 3.2989 49.9359 2.00906C48.2328 2.43744 46.5767 2.98161 44.9687 3.6237C45.6503 6.60728 50.9283 11.021 52.6776 12.3739C55.4502 14.5177 58.9027 15.768 62.405 15.8941C64.3548 15.9647 66.3197 15.6992 68.2507 15.976C69.7825 16.1954 71.2418 16.7499 72.7133 17.2273C79.2143 19.3362 86.187 19.9491 92.9619 19.0641C92.3688 18.1405 91.7417 17.2404 91.0761 16.3715Z" fill="#FFAA62"/>
<path d="M99.0496 36.8968C98.5317 36.9175 98.0149 36.9166 97.498 36.8695C93.878 36.5428 90.7127 34.1072 87.0964 33.7419C82.7967 33.3069 78.1504 35.8075 74.3214 33.804C72.8339 33.0254 71.738 31.665 70.3408 30.7339C65.864 27.7531 59.9487 29.8489 54.5888 30.297C53.6944 30.3723 52.75 30.3874 51.9545 29.9731C50.8332 29.3894 50.289 28.1212 49.5066 27.128C47.3148 24.3487 43.3173 23.8045 40.507 21.6532C38.174 19.8681 36.8305 17.1209 35.1452 14.7154C34.6029 13.9424 33.4816 12.6121 32.3678 11.697C31.3906 12.6253 30.4613 13.6016 29.5829 14.6241C30.1826 17.4438 31.8472 20.9885 33.2509 22.7387C35.1348 25.0849 38.4074 25.9012 40.4486 28.1118C41.5209 29.2727 42.1903 30.7546 43.2354 31.9399C46.573 35.7284 52.4177 35.4394 57.466 35.3198C60.3704 35.2511 63.3493 35.3547 66.0533 36.4176C67.0663 36.8159 68.0304 37.345 69.0717 37.6623C71.2823 38.3335 73.6596 38.0003 75.9577 38.2328C78.2681 38.4653 80.475 39.2675 82.7129 39.887C88.0568 41.3642 93.685 41.7832 99.1936 41.1627C99.1992 40.9104 99.2134 40.659 99.2134 40.4058C99.2134 39.2223 99.1512 38.0539 99.0496 36.8968Z" fill="#FFD587"/>
<path d="M87.2048 63.3329C84.9452 63.9684 82.7148 64.9965 80.3724 64.8571C78.6702 64.7564 77.0527 64.0399 75.3514 63.8996C70.4378 63.4948 65.5666 67.8802 60.9843 66.0575C59.8386 65.6009 58.8745 64.795 57.8793 64.0663C54.4146 61.5308 50.3418 59.8343 46.1022 59.1583C43.7457 58.7826 41.2837 58.7026 39.1287 57.6764C36.2637 56.3103 34.4146 53.516 32.2746 51.1717C29.0011 47.5827 24.7682 44.891 20.1492 43.395C20.2594 44.8684 20.4477 46.3192 20.7151 47.7428C23.1064 49.1569 24.8821 51.6885 26.4148 54.1025C28.39 57.2122 30.5837 60.5894 34.087 61.7276C36.9425 62.6559 40.1869 61.8942 42.953 63.0608C45.19 64.0041 46.7387 66.0471 48.6584 67.5347C52.1212 70.2179 56.7119 71.0097 61.0926 70.9391C65.4733 70.8685 69.8089 70.0296 74.1868 69.8366C77.8596 69.6756 81.5361 69.9713 85.1994 70.2942C85.3124 70.3027 85.4253 70.313 85.5383 70.3224C88.1594 68.0506 90.484 65.4484 92.4338 62.5684C90.6675 62.6041 88.906 62.8555 87.2048 63.3329Z" fill="#FFD587"/>
<path d="M99.1833 40.1704C106.336 44.763 110.209 49.2331 109.232 52.6366C107.131 59.9604 83.386 59.5744 56.1959 51.7742C29.0058 43.974 8.66776 31.7149 10.7682 24.3911C11.5327 21.7257 15.1678 20.0828 20.7903 19.4454C9.22888 19.2797 1.45126 21.3877 0.181197 25.8137C-2.37117 34.7126 22.341 49.6088 55.3778 59.0858C88.4145 68.5628 117.266 69.0317 119.819 60.1337C121.346 54.8105 113.114 47.3417 99.1833 40.1704Z" fill="#F5F3E9"/>
<path d="M110.969 47.2843C107.757 44.939 103.783 42.5392 99.1833 40.1704C106.336 44.763 110.209 49.2331 109.232 52.6366C107.131 59.9604 83.386 59.5744 56.1959 51.7742C29.0058 43.974 8.66776 31.7149 10.7682 24.3911C11.4564 21.9912 14.4767 20.4227 19.1747 19.6686C13.4524 20.418 9.76363 22.1804 8.96337 24.971C6.67367 32.951 28.8372 46.3108 58.4677 54.8115C88.0972 63.3112 113.974 63.732 116.262 55.7511C116.924 53.4463 114.769 50.3874 110.969 47.2843Z" fill="#F5E2D0"/>
<path d="M52.2031 26.9058C52.4996 27.3407 52.831 27.7512 53.1944 28.1325C53.4185 28.3679 53.6624 28.5976 53.9617 28.7257C54.2696 28.8565 54.6142 28.8707 54.9475 28.8424C55.6451 28.7822 56.3258 28.5393 56.9039 28.1448C57.015 28.0695 57.128 27.981 57.1685 27.8529C57.2089 27.7249 57.1675 27.5855 57.1129 27.4631C56.8879 26.9566 56.4482 26.5678 55.9558 26.3126C55.4634 26.0575 54.9183 25.9229 54.3751 25.8137C53.7556 25.6884 53.0852 25.5933 52.4601 25.7317C52.2803 25.7722 51.6645 25.9059 51.6203 26.1225C51.5854 26.2976 52.0873 26.7363 52.2031 26.9058Z" fill="#FFD587"/>
<path d="M76.806 33.5084C77.1082 33.5404 77.4161 33.515 77.7117 33.4453C77.9424 33.3907 78.173 33.3051 78.3453 33.1412C78.6438 32.8541 78.6927 32.3645 78.5186 31.9889C78.3463 31.6123 77.9875 31.344 77.5968 31.2046C76.8333 30.9335 74.9193 30.7998 74.6575 31.8627C74.4118 32.856 76.0716 33.4303 76.806 33.5084Z" fill="#FFD587"/>
<path d="M75.0698 49.0354C75.469 49.0147 75.8757 48.9931 76.2505 48.8537C76.6252 48.7153 76.9707 48.4385 77.0921 48.0582C77.2531 47.5536 76.9745 46.9877 76.5489 46.6714C76.1224 46.356 75.582 46.2421 75.0567 46.1771C74.0446 46.0528 69.3993 45.9003 69.7344 47.7174C70.0574 49.4648 73.8845 49.0976 75.0698 49.0354Z" fill="#FFAA62"/>
<path d="M62.7477 10.3422C63.2241 10.2339 63.7325 9.92324 63.7702 9.43649C63.7937 9.1531 63.6468 8.88292 63.4745 8.65413C62.7816 7.73618 60.1765 6.40021 59.5071 8.05628C58.8424 9.70012 61.5991 10.6021 62.7477 10.3422Z" fill="#FFAA62"/>
<path d="M88.8174 21.8688C89.1469 22.1588 89.2844 22.6154 89.2929 23.0541C89.2985 23.3535 89.2486 23.6567 89.1187 23.9269C88.8739 24.4381 88.3608 24.7836 87.8148 24.9381C87.2696 25.0934 86.6906 25.0802 86.1257 25.0313C85.0468 24.9381 79.6012 24.2235 81.8711 22.3857C82.7335 21.6871 83.756 21.5816 84.8123 21.6325C85.8894 21.6833 87.9371 21.094 88.8174 21.8688Z" fill="#FFAA62"/>
<path d="M47.4391 41.931C47.8138 41.9102 48.2327 41.8086 48.5519 41.6146C48.8456 41.4357 49.0556 41.1787 49.0669 40.8332C49.0763 40.5319 48.9219 40.2523 48.7534 40.0028C47.6057 38.2996 45.1729 36.7481 43.5771 38.8325C41.6875 41.3011 45.6126 42.0317 47.4391 41.931Z" fill="#FFAA62"/>
<path d="M42.4493 66.9877C43.2768 67.6948 43.8041 68.9394 43.2627 69.8837C42.9153 70.491 42.2064 70.8205 41.5087 70.8779C39.7604 71.021 36.5254 70.0061 37.1496 67.6854C37.7493 65.4616 41.0653 65.808 42.4493 66.9877Z" fill="#FFD587"/>
<path d="M72.7774 71.9606C72.9873 71.9926 73.2048 72.0359 73.3724 72.1668C73.7019 72.4229 73.7207 72.9238 73.5965 73.3211C73.3997 73.95 72.9591 74.4264 72.4102 74.7936C71.8651 75.1579 71.2145 75.414 70.5894 75.6051C68.9342 76.1107 65.7181 77.184 67.2405 74.5073C68.3185 72.6103 70.7184 71.6386 72.7774 71.9606Z" fill="#FFD587"/>
<path d="M30.9838 26.935C30.4415 26.5499 29.6893 26.2307 29.1432 26.6111L28.5708 26.8333C27.9833 27.5648 28.0596 28.7407 28.7365 29.3904C29.1837 29.8187 29.8051 30.0014 30.401 30.169C30.5554 30.2123 30.7221 30.2556 30.8737 30.2019C30.9913 30.1605 31.0808 30.0663 31.1655 29.976C31.5892 29.5231 32.0411 28.9968 32.0091 28.3773C31.9771 27.7672 31.4809 27.289 30.9838 26.935Z" fill="#FFAA62"/>
<path d="M41.5238 19.7749C42.0152 19.9058 42.6611 19.9406 42.9059 19.4944C42.9708 19.3767 42.9944 19.2392 43.0075 19.1046C43.1535 17.6359 41.7168 15.3641 40.0061 16.2886C38.1231 17.3063 40.2641 19.4388 41.5238 19.7749Z" fill="#FFD587"/>
<path d="M70.3568 21.1542C69.3861 22.9299 64.5403 22.7651 65.4789 19.9096C66.4148 17.0644 71.6984 18.6998 70.3568 21.1542Z" fill="#FFAA62"/>
</svg>
