<svg width="80" height="80" viewBox="0 0 80 80" fill="none" xmlns="http://www.w3.org/2000/svg">
<path d="M40.0008 0C62.0906 0 80.0001 17.9084 80.0001 40.0006C80.0001 62.0916 62.0906 80 40.0008 80C17.9098 80 6.10352e-05 62.0916 6.10352e-05 40.0006C6.10352e-05 17.9084 17.9098 0 40.0008 0Z" fill="url(#paint0_linear_58_94)"/>
<path d="M3.22544 23.6025C3.72424 23.6333 4.23293 23.6069 4.71744 23.5421C7.75963 23.14 10.9655 21.8128 13.755 23.0917C14.5373 23.4498 15.2305 24.0003 16.0468 24.2727C16.8631 24.5463 17.908 24.4496 18.387 23.7343C18.8286 23.0751 18.621 22.1973 18.7122 21.4085C18.9056 19.7407 20.4129 18.5806 21.2534 17.127C22.0488 15.7504 22.307 13.9991 23.5342 12.9895C23.9979 12.6082 24.5659 12.3676 25.0273 11.9842C26.6435 10.6449 26.449 8.15536 26.1106 6.08439C25.9139 4.88135 25.7689 3.53878 25.9952 2.36101C15.8392 6.07558 7.62009 13.7959 3.22544 23.6025Z" fill="#FF9B3D" fill-opacity="0.25"/>
<path d="M41.9301 9.85316e-05C41.8191 0.44945 41.7368 0.909801 41.5895 1.27675C41.0424 2.64568 40.0679 3.50151 39.2691 4.70674C38.1298 6.42614 38.1408 8.63557 38.1925 10.6978C38.2166 11.6393 38.3111 12.7226 39.078 13.2697C40.0975 13.9959 41.5071 13.2576 42.4256 12.4094C43.3452 11.5624 44.3395 10.5132 45.5865 10.6154C46.3039 10.6747 46.9213 11.1163 47.5673 11.4316C49.6153 12.4358 52.2356 12.1359 54.0044 10.6956C54.4977 10.2923 54.9317 9.80891 55.4788 9.48151C56.8785 8.64653 58.6419 9.00469 60.2613 9.17498C61.6269 9.3178 63.2222 9.17168 64.1572 8.26858C57.9409 3.46744 50.2788 0.451648 41.9301 9.85316e-05Z" fill="#FF9B3D" fill-opacity="0.25"/>
<path d="M70.1076 57.0447C69.1309 56.0504 67.8422 55.4406 66.6501 54.7199C66.0942 54.3848 65.5306 53.9926 65.2537 53.4059C64.9835 52.8346 65.0307 52.1556 65.2296 51.5558C66.2458 48.4905 70.7471 47.0458 70.6196 43.819C70.5746 42.6896 69.9197 41.6821 69.2298 40.7845C68.1663 39.4024 66.9665 38.1257 65.6536 36.9776C64.132 35.6461 62.2621 33.841 63.0333 31.9721C65.5636 31.1427 68.0927 30.3121 70.6207 29.4826C71.5216 29.1882 72.5071 28.8926 73.3948 29.2244C74.61 29.6793 75.1164 31.0735 75.7515 32.2051C76.7458 33.9783 78.3344 35.3659 79.6242 36.9315C79.1046 29.9484 76.7875 23.4675 73.1399 17.9401C71.5996 18.5059 70.8031 20.2934 69.1771 20.7823C67.4115 21.3152 65.5669 20.3813 63.7793 20.9779C63.0773 21.2679 62.5214 21.8194 61.9149 22.2765C59.9967 23.7256 57.528 24.2585 55.1274 24.3563C52.7257 24.454 50.3262 24.1563 47.9223 24.1255C46.3524 24.1069 44.7043 24.2255 43.3761 25.0616C42.0478 25.8988 41.1831 27.6566 41.827 29.0893C42.8224 31.3053 46.4633 31.3327 47.3269 33.6037C47.7411 34.6913 47.3565 36.0042 47.9355 37.0139C48.2223 37.5127 48.7046 37.8621 49.1737 38.1961C50.4504 39.1036 51.727 40.0121 53.0037 40.9196C53.3179 41.1437 53.6497 41.3899 53.7804 41.7513C53.8716 42.0029 53.854 42.2798 53.8343 42.5467C53.7068 44.3079 53.5783 46.0691 53.4497 47.8291C53.3981 48.5465 53.342 49.2805 53.0509 49.9375C52.7674 50.5802 52.2807 51.1064 51.8676 51.6744C50.9689 52.9126 50.4064 54.5112 50.8206 55.9834C51.4974 58.3916 54.3693 59.4211 56.8687 59.5167C58.2717 59.5694 59.8571 59.5145 60.8492 60.5076C61.8731 61.5349 61.7622 63.2631 61.1601 64.5815C60.557 65.902 59.5616 67.0084 58.9309 68.3136C58.2992 69.6199 58.1091 71.3239 59.0639 72.416C59.5682 72.9928 60.3043 73.3015 61.0173 73.5828C61.0887 73.6103 61.159 73.6366 61.2293 73.6641C64.7011 71.447 67.807 68.7102 70.4383 65.5637C68.7574 63.2279 72.762 59.7485 70.1076 57.0447Z" fill="#FF9B3D" fill-opacity="0.25"/>
<path d="M16.1161 53.5762C15.9172 53.4586 15.6656 53.5301 15.4415 53.5883C13.9418 53.9783 12.3268 53.6125 10.9479 52.9038C8.40783 51.5975 7.10152 49.5518 5.20963 47.6599C4.01978 46.469 3.05736 46.3481 1.68074 47.4632C1.26764 47.7972 0.936918 48.1488 0.666647 48.5125C1.6873 53.1785 3.52209 57.538 6.01385 61.4382C6.41487 61.291 6.76094 61.0317 6.97408 60.6527C7.17953 60.2857 7.24436 59.8572 7.41905 59.4738C8.00573 58.1939 9.62845 57.7709 11.0369 57.8016C12.4454 57.8313 13.8935 58.1499 15.236 57.7258C15.6326 57.6006 16.0194 57.405 16.2896 57.0908C16.9752 56.2943 16.7148 55.088 16.416 54.0816C16.3589 53.8882 16.2885 53.6784 16.1161 53.5762Z" fill="#FF9B3D" fill-opacity="0.25"/>
<path d="M39.7362 79.9374C44.2363 79.9374 48.5562 79.1827 52.5927 77.8137C52.5048 77.3391 52.4016 76.8678 52.2741 76.4031C52.1104 75.8054 51.8885 75.1792 51.3996 74.7979C50.759 74.2991 49.8669 74.3639 49.0572 74.2947C47.7498 74.1838 46.3523 73.5147 45.9469 72.2666C45.5426 71.0174 46.8006 69.4112 48.019 69.8968C48.777 69.1354 47.8641 67.8643 46.9071 67.3765C45.9491 66.8887 44.7153 66.3942 44.6241 65.3231C44.5868 64.8946 44.756 64.4277 44.5527 64.0486C44.1869 63.3686 43.0618 63.7388 42.7092 64.4255C42.3554 65.111 42.4037 65.9438 42.0862 66.6469C40.9798 69.0915 36.7028 68.2279 35.336 70.5373C35.0042 71.0954 34.9043 71.7711 34.5439 72.3116C34.0341 73.0763 33.109 73.4323 32.2444 73.7421C30.5085 74.365 28.4353 74.9484 26.9411 73.8684C26.5237 73.5674 26.1864 73.1532 25.7271 72.9214C23.8385 71.9656 22.2422 73.7718 21.7862 75.6812C27.1862 78.3982 33.2793 79.9374 39.7362 79.9374Z" fill="#FF9B3D" fill-opacity="0.25"/>
<defs>
<linearGradient id="paint0_linear_58_94" x1="40.0001" y1="0" x2="40.0001" y2="80" gradientUnits="userSpaceOnUse">
<stop stop-color="#FFD04F"/>
<stop offset="0.0833333" stop-color="#FFCD4E" stop-opacity="0.9875"/>
<stop offset="1" stop-color="#FF9A3D"/>
</linearGradient>
</defs>
</svg>
