<svg width="80" height="80" viewBox="0 0 80 80" fill="none" xmlns="http://www.w3.org/2000/svg">
<path d="M80.0001 40C80.0001 62.0918 62.0908 80 40 80C17.9093 80 0 62.0918 0 40C0 17.9081 17.9093 0 40 0C62.0908 0 80.0001 17.9081 80.0001 40Z" fill="#FFB04F"/>
<path d="M69.2167 13.6222C69.3057 13.3344 69.3211 13.0476 69.2903 12.7708C68.4597 11.8776 67.5907 11.0217 66.6832 10.2087C66.4041 10.1395 66.1196 10.101 65.8383 10.1054C63.942 10.1329 62.2699 11.2656 60.6318 12.2192C57.427 14.0826 53.9014 15.3944 50.2582 16.0777C48.9959 16.314 47.7016 16.4832 46.5348 17.0182C44.8638 17.7862 43.5959 19.2452 41.9633 20.0944C39.8847 21.1755 37.2632 21.1381 35.2142 19.9999C34.844 19.7934 34.4661 19.5209 34.3496 19.1133C34.2485 18.7574 34.3683 18.3816 34.454 18.0213C35.3593 14.1935 32.2457 10.3361 32.8972 6.45674C33.1026 5.22844 33.6783 4.08914 33.9343 2.87183C34.1002 2.08628 34.0947 1.21175 33.8146 0.477839C33.3256 0.55365 32.8411 0.644878 32.3577 0.737163C30.6944 4.32429 31.0965 8.66726 31.3415 12.7026C31.615 17.2412 31.3338 22.3983 27.9246 25.4076C25.757 27.3225 22.2347 28.7024 22.3929 31.5897C22.4533 32.7049 23.1213 33.7057 23.2685 34.8132C23.6377 37.5829 20.6295 39.7341 17.8444 39.9857C15.1483 40.2274 12.3687 39.3155 10.3395 37.5225C8.61129 35.9942 7.45991 33.9134 5.81521 32.295C4.59021 31.0887 2.87519 30.1516 1.22171 30.1669C0.558117 32.7938 0.157107 35.5251 0.0417481 38.33C1.77873 38.4201 3.50032 38.8178 5.08569 39.5341C9.28696 41.4326 12.7423 45.4449 17.3511 45.5581C20.4735 45.6361 23.2905 43.8617 26.191 42.7049C29.0914 41.5469 32.8411 41.1634 34.9528 43.4651C35.791 44.3803 36.2327 45.591 36.9963 46.5688C37.9796 47.8268 39.4771 48.6761 40.2055 50.0966C41.2503 52.1347 40.3065 54.7396 38.6256 56.2942C36.9435 57.8499 34.6913 58.5992 32.5127 59.3056C27.0226 61.0865 21.4887 62.8763 15.7559 63.5344C14.1705 63.7167 12.2006 64.1068 11.804 65.6526C11.292 67.6521 14.2265 68.9387 16.1228 68.1257C18.0191 67.3127 19.2595 65.4625 20.9998 64.3551C25.4318 61.5315 31.6348 64.1903 36.3722 61.9149C37.4863 61.3799 38.4586 60.5965 39.4188 59.8198C42.2556 57.5247 45.0923 55.2307 47.929 52.9356C49.6473 51.5458 51.5579 49.61 50.9613 47.4808C50.534 45.9569 48.9805 45.0846 47.5731 44.3616C43.4992 42.2698 39.4584 40.0483 35.8877 37.1797C33.741 35.4548 31.6074 33.0553 31.982 30.3263C32.372 27.4884 35.2329 25.7712 37.784 24.4693C41.1075 22.773 44.4968 21.0558 48.174 20.4317C50.9207 19.9648 53.8102 20.1109 56.392 19.065C58.5794 18.1784 60.4351 16.4733 62.7489 16.0085C65.1461 15.5284 68.496 15.9591 69.2167 13.6222Z" fill="#FF9B3D"/>
<path d="M3.48936 23.6651C3.98815 23.6958 4.49684 23.6694 4.98135 23.6046C8.02354 23.2025 11.2294 21.8754 14.0189 23.1542C14.8012 23.5124 15.4944 24.0628 16.3107 24.3353C17.127 24.6088 18.1719 24.5121 18.6509 23.7969C19.0925 23.1377 18.8849 22.2598 18.9761 21.471C19.1694 19.8032 20.6768 18.6431 21.5173 17.1896C22.3127 15.8129 22.5709 14.0617 23.7981 13.052C24.2617 12.6708 24.8298 12.4302 25.2912 12.0467C26.9073 10.7075 26.7128 8.21788 26.3745 6.1469C26.1778 4.94387 26.0328 3.60129 26.2591 2.42353C16.1031 6.1381 7.884 13.8584 3.48936 23.6651Z" fill="#FF9B3D"/>
<path d="M42.1941 0.0626196C42.0831 0.511971 42.0007 0.972322 41.8535 1.33928C41.3064 2.70821 40.3318 3.56403 39.5331 4.76926C38.3938 6.48866 38.4048 8.6981 38.4564 10.7603C38.4806 11.7018 38.5751 12.7851 39.3419 13.3322C40.3615 14.0584 41.7711 13.3201 42.6896 12.472C43.6091 11.6249 44.6034 10.5757 45.8504 10.6779C46.5678 10.7372 47.1853 11.1788 47.8313 11.4942C49.8792 12.4983 52.4995 12.1984 54.2684 10.7581C54.7617 10.3549 55.1956 9.87144 55.7427 9.54403C57.1424 8.70905 58.9058 9.06721 60.5252 9.2375C61.8909 9.38033 63.4861 9.23421 64.4211 8.33111C58.2048 3.52996 50.5428 0.514168 42.1941 0.0626196Z" fill="#FF9B3D"/>
<path d="M70.3714 57.1072C69.3947 56.113 68.106 55.5032 66.9139 54.7825C66.358 54.4474 65.7944 54.0552 65.5175 53.4685C65.2473 52.8972 65.2945 52.2182 65.4934 51.6183C66.5096 48.5531 71.0108 47.1083 70.8834 43.8816C70.8384 42.7521 70.1835 41.7447 69.4936 40.847C68.4301 39.4649 67.2303 38.1883 65.9174 37.0402C64.3958 35.7086 62.5259 33.9035 63.2971 32.0347C65.8274 31.2052 68.3565 30.3747 70.8845 29.5452C71.7854 29.2507 72.7709 28.9552 73.6586 29.287C74.8737 29.7418 75.3802 31.136 76.0152 32.2676C77.0095 34.0409 78.5982 35.4285 79.888 36.9941C79.3683 30.011 77.0513 23.53 73.4037 18.0026C71.8634 18.5685 71.0669 20.356 69.4408 20.8449C67.6753 21.3777 65.8307 20.4439 64.0431 21.0404C63.3411 21.3305 62.7852 21.882 62.1787 22.339C60.2605 23.7882 57.7918 24.321 55.3912 24.4188C52.9895 24.5166 50.59 24.2188 48.1862 24.1881C46.6162 24.1694 44.9682 24.2881 43.6399 25.1241C42.3116 25.9613 41.447 27.7192 42.0908 29.1518C43.0862 31.3678 46.7272 31.3953 47.5907 33.6662C48.0049 34.7539 47.6203 36.0668 48.1993 37.0765C48.4861 37.5753 48.9684 37.9247 49.4375 38.2587C50.7142 39.1661 51.9908 40.0747 53.2675 40.9822C53.5817 41.2063 53.9135 41.4524 54.0442 41.8139C54.1354 42.0655 54.1178 42.3423 54.0981 42.6093C53.9706 44.3705 53.8421 46.1316 53.7135 47.8917C53.6619 48.6091 53.6059 49.343 53.3147 50C53.0313 50.6427 52.5445 51.169 52.1315 51.737C51.2327 52.9752 50.6702 54.5737 51.0844 56.0459C51.7612 58.4542 54.6331 59.4837 57.1326 59.5792C58.5355 59.632 60.1209 59.577 61.113 60.5702C62.1369 61.5975 62.026 63.3256 61.4239 64.644C60.8208 65.9646 59.8254 67.071 59.1947 68.3762C58.563 69.6825 58.3729 71.3865 59.3277 72.4786C59.832 73.0554 60.5681 73.3641 61.2811 73.6454C61.3525 73.6728 61.4228 73.6992 61.4931 73.7267C64.9649 71.5096 68.0708 68.7728 70.7021 65.6263C69.0212 63.2905 73.0258 59.811 70.3714 57.1072Z" fill="#FF9B3D"/>
<path d="M16.3799 53.6388C16.1811 53.5212 15.9295 53.5926 15.7054 53.6509C14.2057 54.0409 12.5907 53.675 11.2118 52.9664C8.67173 51.6601 7.36543 49.6144 5.47353 47.7225C4.28368 46.5315 3.32127 46.4107 1.94465 47.5258C1.53155 47.8598 1.20083 48.2114 0.930563 48.5751C1.95122 53.2411 3.786 57.6005 6.27776 61.5008C6.67877 61.3536 7.02485 61.0943 7.23799 60.7152C7.44344 60.3483 7.50826 59.9198 7.68295 59.5364C8.26964 58.2564 9.89235 57.8334 11.3008 57.8642C12.7093 57.8939 14.1573 58.2125 15.4999 57.7884C15.8965 57.6632 16.2833 57.4676 16.5535 57.1534C17.2391 56.3568 16.9787 55.1505 16.6799 54.1442C16.6227 53.9508 16.5524 53.7409 16.3799 53.6388Z" fill="#FF9B3D"/>
<path d="M40 80C44.5001 80 48.82 79.2452 52.8565 77.8763C52.7686 77.4017 52.6654 76.9304 52.5379 76.4656C52.3742 75.8679 52.1523 75.2417 51.6634 74.8605C51.0228 74.3617 50.1308 74.4265 49.321 74.3573C48.0136 74.2463 46.6161 73.5772 46.2107 72.3292C45.8064 71.08 47.0644 69.4737 48.2828 69.9594C49.0409 69.198 48.1279 67.9268 47.171 67.439C46.2129 66.9512 44.9791 66.4568 44.8879 65.3856C44.8506 64.9571 45.0198 64.4902 44.8165 64.1112C44.4507 63.4311 43.3256 63.8014 42.973 64.488C42.6192 65.1736 42.6675 66.0064 42.35 66.7095C41.2437 69.154 36.9666 68.2905 35.5999 70.5999C35.2681 71.158 35.1681 71.8337 34.8077 72.3742C34.298 73.1389 33.3729 73.4948 32.5082 73.8047C30.7724 74.4276 28.6992 75.011 27.205 73.931C26.7875 73.63 26.4502 73.2158 25.991 72.984C24.1024 72.0281 22.506 73.8343 22.0501 75.7438C27.45 78.4608 33.5432 80 40 80Z" fill="#FF9B3D"/>
</svg>
