<svg width="78" height="89" viewBox="0 0 78 89" fill="none" xmlns="http://www.w3.org/2000/svg">
<path d="M0.932654 46.4362C-0.134721 45.3669 -0.134721 43.6331 0.932654 42.5638L16.3939 27.0745C17.4613 26.0052 19.1918 26.0052 20.2592 27.0745L35.7204 42.5638C36.7878 43.6331 36.7878 45.3669 35.7204 46.4362L20.2592 61.9255C19.1918 62.9948 17.4613 62.9948 16.3939 61.9255L0.932654 46.4362Z" fill="#7A7195"/>
<path d="M27.0235 20.2979C25.9561 19.2286 25.9561 17.4949 27.0235 16.4256L42.4847 0.936205C43.5521 -0.13311 45.2826 -0.133111 46.35 0.936205L61.8113 16.4256C62.8786 17.4949 62.8786 19.2286 61.8113 20.2979L46.35 35.7872C45.2826 36.8566 43.5521 36.8566 42.4847 35.7872L27.0235 20.2979Z" fill="#978BB8"/>
<path d="M27.0235 72.5744C25.9561 71.5051 25.9561 69.7714 27.0235 68.7021L42.4847 53.2128C43.5521 52.1434 45.2826 52.1434 46.35 53.2128L61.8113 68.7021C62.8786 69.7714 62.8786 71.5051 61.8113 72.5744L46.35 88.0638C45.2826 89.1331 43.5521 89.1331 42.4847 88.0638L27.0235 72.5744Z" fill="#80769B"/>
<path d="M12.5286 46.4362C11.4612 45.3669 11.4612 43.6331 12.5286 42.5638L42.4847 12.5532C43.5521 11.4839 45.2826 11.4839 46.35 12.5532L76.3062 42.5638C77.3735 43.6331 77.3735 45.3669 76.3062 46.4362L46.35 76.4468C45.2826 77.5161 43.5521 77.5161 42.4847 76.4468L12.5286 46.4362Z" fill="url(#paint0_linear_4_159)"/>
<defs>
<linearGradient id="paint0_linear_4_159" x1="21.7087" y1="21.75" x2="67.2086" y2="67.1673" gradientUnits="userSpaceOnUse">
<stop stop-color="#FEF9F6"/>
<stop offset="1" stop-color="#8D77CA"/>
</linearGradient>
</defs>
</svg>
