<svg width="250" height="91" viewBox="0 0 250 91" fill="none" xmlns="http://www.w3.org/2000/svg">
<path d="M1.93265 47.4362C0.865279 46.3669 0.865279 44.6331 1.93265 43.5638L17.3939 28.0745C18.4613 27.0052 20.1918 27.0052 21.2592 28.0745L36.7204 43.5638C37.7878 44.6331 37.7878 46.3669 36.7204 47.4362L21.2592 62.9255C20.1918 63.9948 18.4613 63.9948 17.3939 62.9255L1.93265 47.4362Z" fill="#7A7195"/>
<path d="M28.0235 21.2979C26.9561 20.2286 26.9561 18.4949 28.0235 17.4256L43.4847 1.93621C44.5521 0.86689 46.2826 0.866889 47.35 1.93621L62.8113 17.4256C63.8786 18.4949 63.8786 20.2286 62.8113 21.2979L47.35 36.7872C46.2826 37.8566 44.5521 37.8566 43.4847 36.7872L28.0235 21.2979Z" fill="#978BB8"/>
<path d="M28.0235 73.5744C26.9561 72.5051 26.9561 70.7714 28.0235 69.7021L43.4847 54.2128C44.5521 53.1434 46.2826 53.1434 47.35 54.2128L62.8113 69.7021C63.8786 70.7714 63.8786 72.5051 62.8113 73.5744L47.35 89.0638C46.2826 90.1331 44.5521 90.1331 43.4847 89.0638L28.0235 73.5744Z" fill="#80769B"/>
<path d="M13.5286 47.4362C12.4612 46.3669 12.4612 44.6331 13.5286 43.5638L43.4847 13.5532C44.5521 12.4839 46.2826 12.4839 47.35 13.5532L77.3062 43.5638C78.3735 44.6331 78.3735 46.3669 77.3062 47.4362L47.35 77.4468C46.2826 78.5161 44.5521 78.5161 43.4847 77.4468L13.5286 47.4362Z" fill="url(#paint0_linear_4_158)"/>
<path d="M86.0088 37.0453C86.0088 35.1528 86.323 33.3039 86.9515 31.4988C87.6086 29.6645 88.5514 28.0049 89.7798 26.52C91.0082 25.0059 92.5223 23.8122 94.3221 22.9387C96.1219 22.0361 98.1645 21.5848 100.45 21.5848C103.164 21.5848 105.478 22.2254 107.392 23.5065C109.335 24.7584 110.763 26.3744 111.677 28.3542L109.32 29.8392C108.663 28.4707 107.835 27.3934 106.835 26.6073C105.835 25.7921 104.764 25.2097 103.621 24.8603C102.507 24.511 101.393 24.3363 100.279 24.3363C98.4502 24.3363 96.8361 24.7148 95.4363 25.4718C94.0364 26.1997 92.8509 27.1896 91.8795 28.4416C90.9368 29.6645 90.2226 31.0475 89.7369 32.5906C89.2513 34.1046 89.0084 35.6478 89.0084 37.22C89.0084 38.9379 89.2941 40.5829 89.8655 42.1552C90.4369 43.7274 91.2368 45.125 92.2652 46.3479C93.2937 47.5416 94.4935 48.5024 95.8648 49.2303C97.2646 49.9291 98.7788 50.2785 100.407 50.2785C101.55 50.2785 102.721 50.0747 103.921 49.6671C105.121 49.2594 106.235 48.6334 107.264 47.7891C108.321 46.9447 109.163 45.8529 109.792 44.5136L112.277 45.8238C111.649 47.3669 110.677 48.6771 109.363 49.7544C108.049 50.8317 106.578 51.6469 104.949 52.2001C103.35 52.7533 101.778 53.0299 100.236 53.0299C98.1503 53.0299 96.2362 52.5786 94.4935 51.6761C92.7509 50.7443 91.2368 49.5215 89.9512 48.0075C88.6942 46.4643 87.7229 44.7465 87.0372 42.8539C86.3516 40.9323 86.0088 38.9961 86.0088 37.0453Z" fill="url(#paint1_linear_4_158)"/>
<path d="M141.397 21.7595V52.7679H138.441V38.2682H120.4V52.7679H117.4V21.7595H120.4V35.5604H138.441V21.7595H141.397Z" fill="url(#paint2_linear_4_158)"/>
<path d="M169.478 50.0601V52.7679H149.037V21.7595H169.092V24.4673H152.037V35.6478H166.906V38.2245H152.037V50.0601H169.478Z" fill="url(#paint3_linear_4_158)"/>
<path d="M195.591 50.0601V52.7679H175.15V21.7595H195.205V24.4673H178.15V35.6478H193.02V38.2245H178.15V50.0601H195.591Z" fill="url(#paint4_linear_4_158)"/>
<path d="M201.263 52.7679V21.7595H214.119C215.433 21.7595 216.633 22.0361 217.718 22.5893C218.804 23.1425 219.747 23.8995 220.547 24.8603C221.375 25.7921 222.004 26.8402 222.432 28.0049C222.889 29.1404 223.118 30.305 223.118 31.4988C223.118 32.9837 222.832 34.3812 222.261 35.6914C221.718 37.0017 220.932 38.1081 219.904 39.0107C218.904 39.9132 217.718 40.5101 216.347 40.8013L223.804 52.7679H220.418L213.262 41.3254H204.263V52.7679H201.263ZM204.263 38.6176H214.205C215.404 38.6176 216.447 38.2828 217.333 37.6131C218.218 36.9434 218.904 36.07 219.39 34.9927C219.875 33.8863 220.118 32.7216 220.118 31.4988C220.118 30.2468 219.833 29.0967 219.261 28.0485C218.718 26.9712 217.976 26.1123 217.033 25.4718C216.119 24.8021 215.09 24.4673 213.947 24.4673H204.263V38.6176Z" fill="url(#paint5_linear_4_158)"/>
<path d="M247.043 27.5681C246.615 27.0732 246.115 26.6364 245.543 26.2579C244.972 25.8503 244.329 25.5009 243.615 25.2097C242.901 24.9186 242.129 24.6857 241.301 24.511C240.501 24.3363 239.644 24.2489 238.73 24.2489C236.073 24.2489 234.116 24.773 232.859 25.8212C231.631 26.8402 231.016 28.2378 231.016 30.0139C231.016 31.2367 231.302 32.1975 231.873 32.8963C232.473 33.5951 233.402 34.1629 234.659 34.5996C235.916 35.0363 237.516 35.4876 239.458 35.9535C241.629 36.4193 243.501 36.9725 245.072 37.6131C246.643 38.2536 247.857 39.1271 248.714 40.2335C249.571 41.3108 250 42.7812 250 44.6446C250 46.0713 249.729 47.3087 249.186 48.3568C248.643 49.405 247.886 50.2785 246.915 50.9773C245.943 51.6761 244.786 52.2001 243.444 52.5495C242.101 52.8698 240.63 53.0299 239.03 53.0299C237.459 53.0299 235.944 52.8698 234.487 52.5495C233.059 52.2001 231.702 51.7052 230.416 51.0646C229.131 50.395 227.931 49.5506 226.817 48.5315L228.317 46.0421C228.86 46.6245 229.502 47.1777 230.245 47.7017C231.016 48.1967 231.859 48.648 232.773 49.0556C233.716 49.4632 234.716 49.7835 235.773 50.0164C236.859 50.2203 237.973 50.3222 239.115 50.3222C241.544 50.3222 243.429 49.8709 244.772 48.9683C246.143 48.0657 246.829 46.7264 246.829 44.9503C246.829 43.6692 246.486 42.6501 245.8 41.8931C245.115 41.107 244.086 40.4664 242.715 39.9715C241.344 39.4765 239.658 38.9961 237.659 38.5302C235.544 38.0353 233.759 37.4821 232.302 36.8706C230.845 36.2592 229.745 35.4585 229.002 34.4686C228.288 33.4495 227.931 32.1102 227.931 30.4506C227.931 28.5289 228.388 26.913 229.302 25.6028C230.245 24.2635 231.531 23.259 233.159 22.5893C234.787 21.8905 236.659 21.5411 238.773 21.5411C240.115 21.5411 241.358 21.6867 242.501 21.9779C243.672 22.2399 244.743 22.633 245.715 23.1571C246.715 23.6812 247.643 24.3363 248.5 25.1224L247.043 27.5681Z" fill="url(#paint6_linear_4_158)"/>
<path d="M86.1953 78.3176C86.0728 78.3176 85.9656 78.2795 85.8738 78.2034C85.7972 78.1424 85.7513 78.0587 85.736 77.952C85.7207 77.8302 85.7513 77.7007 85.8279 77.5636L94.8757 62.2771C94.9522 62.1553 95.0364 62.0715 95.1283 62.0258C95.2354 61.9649 95.3503 61.9344 95.4727 61.9344C95.6105 61.9344 95.7177 61.9649 95.7942 62.0258C95.8861 62.0867 95.9473 62.1781 95.9779 62.3L100.111 77.5179C100.173 77.7159 100.188 77.8759 100.157 77.9977C100.142 78.1044 100.096 78.1805 100.02 78.2262C99.9584 78.2872 99.8742 78.3176 99.767 78.3176C99.6445 78.3176 99.5297 78.2719 99.4225 78.1805C99.3154 78.0891 99.2465 77.9673 99.2159 77.8149L98.0677 73.5192L98.6188 73.7248H88.6065L89.3413 73.5192L86.7235 77.952C86.6622 78.0739 86.5857 78.1653 86.4938 78.2262C86.402 78.2872 86.3024 78.3176 86.1953 78.3176ZM95.289 63.3739L89.6628 72.9708L89.1347 72.8337H98.3662L97.9069 72.9708L95.3349 63.3739H95.289Z" fill="white"/>
<path d="M106.907 78.3633C106.157 78.3633 105.453 78.2643 104.795 78.0663C104.152 77.8682 103.601 77.6017 103.141 77.2665C103.034 77.1904 102.965 77.099 102.935 76.9923C102.904 76.8857 102.896 76.7867 102.912 76.6953C102.942 76.6039 102.996 76.5277 103.072 76.4668C103.149 76.4059 103.241 76.383 103.348 76.3983C103.455 76.3983 103.578 76.444 103.715 76.5353C104.19 76.8705 104.695 77.1142 105.231 77.2665C105.782 77.4036 106.364 77.4722 106.976 77.4722C107.895 77.4722 108.622 77.2818 109.158 76.9009C109.709 76.5201 109.985 75.9717 109.985 75.2558C109.985 74.7988 109.831 74.4179 109.525 74.1133C109.234 73.8086 108.821 73.5877 108.285 73.4506L106.058 72.8565C105.369 72.6737 104.818 72.3462 104.404 71.874C103.991 71.4018 103.784 70.8382 103.784 70.1831C103.784 69.5433 103.96 68.9797 104.312 68.4923C104.665 68.0048 105.154 67.624 105.782 67.3498C106.41 67.0756 107.129 66.9385 107.941 66.9385C108.614 66.9385 109.257 67.0451 109.87 67.2584C110.482 67.4716 110.98 67.7534 111.362 68.1038C111.47 68.2104 111.538 68.3171 111.569 68.4237C111.615 68.5303 111.623 68.6294 111.592 68.7207C111.561 68.8121 111.508 68.8807 111.431 68.9264C111.355 68.9721 111.263 68.9949 111.156 68.9949C111.064 68.9797 110.957 68.9188 110.834 68.8121C110.451 68.477 110.015 68.2333 109.525 68.081C109.035 67.9134 108.5 67.8296 107.918 67.8296C106.984 67.8296 106.226 68.0429 105.644 68.4694C105.078 68.8807 104.795 69.4443 104.795 70.1603C104.795 70.602 104.925 70.9829 105.185 71.3028C105.461 71.6227 105.874 71.8588 106.425 72.0111L108.653 72.6052C109.372 72.8032 109.939 73.1155 110.352 73.542C110.781 73.9686 110.995 74.517 110.995 75.1872C110.995 76.1621 110.62 76.939 109.87 77.5179C109.12 78.0815 108.132 78.3633 106.907 78.3633Z" fill="white"/>
<path d="M117.806 78.3633C117.056 78.3633 116.352 78.2643 115.694 78.0663C115.051 77.8682 114.499 77.6017 114.04 77.2665C113.933 77.1904 113.864 77.099 113.834 76.9923C113.803 76.8857 113.795 76.7867 113.811 76.6953C113.841 76.6039 113.895 76.5277 113.971 76.4668C114.048 76.4059 114.14 76.383 114.247 76.3983C114.354 76.3983 114.476 76.444 114.614 76.5353C115.089 76.8705 115.594 77.1142 116.13 77.2665C116.681 77.4036 117.263 77.4722 117.875 77.4722C118.794 77.4722 119.521 77.2818 120.057 76.9009C120.608 76.5201 120.883 75.9717 120.883 75.2558C120.883 74.7988 120.73 74.4179 120.424 74.1133C120.133 73.8086 119.72 73.5877 119.184 73.4506L116.957 72.8565C116.268 72.6737 115.717 72.3462 115.303 71.874C114.89 71.4018 114.683 70.8382 114.683 70.1831C114.683 69.5433 114.859 68.9797 115.211 68.4923C115.563 68.0048 116.053 67.624 116.681 67.3498C117.309 67.0756 118.028 66.9385 118.84 66.9385C119.513 66.9385 120.156 67.0451 120.769 67.2584C121.381 67.4716 121.879 67.7534 122.261 68.1038C122.368 68.2104 122.437 68.3171 122.468 68.4237C122.514 68.5303 122.522 68.6294 122.491 68.7207C122.46 68.8121 122.407 68.8807 122.33 68.9264C122.254 68.9721 122.162 68.9949 122.055 68.9949C121.963 68.9797 121.856 68.9188 121.733 68.8121C121.35 68.477 120.914 68.2333 120.424 68.081C119.934 67.9134 119.398 67.8296 118.817 67.8296C117.883 67.8296 117.125 68.0429 116.543 68.4694C115.977 68.8807 115.694 69.4443 115.694 70.1603C115.694 70.602 115.824 70.9829 116.084 71.3028C116.36 71.6227 116.773 71.8588 117.324 72.0111L119.552 72.6052C120.271 72.8032 120.838 73.1155 121.251 73.542C121.68 73.9686 121.894 74.517 121.894 75.1872C121.894 76.1621 121.519 76.939 120.769 77.5179C120.018 78.0815 119.031 78.3633 117.806 78.3633Z" fill="white"/>
<path d="M125.192 78.3176C125.039 78.3176 124.924 78.2719 124.847 78.1805C124.786 78.0739 124.771 77.9292 124.801 77.7464L126.432 67.464C126.462 67.2965 126.524 67.1746 126.615 67.0984C126.707 67.0223 126.83 66.9842 126.983 66.9842C127.136 66.9842 127.243 67.0375 127.304 67.1441C127.381 67.2355 127.404 67.3726 127.373 67.5554L125.743 77.8378C125.728 77.9901 125.674 78.1044 125.582 78.1805C125.49 78.2719 125.36 78.3176 125.192 78.3176ZM127.488 64.1051C127.274 64.1051 127.105 64.0518 126.983 63.9452C126.86 63.8233 126.799 63.6633 126.799 63.4653C126.799 63.1607 126.883 62.9322 127.052 62.7798C127.22 62.6123 127.45 62.5285 127.741 62.5285C127.955 62.5285 128.123 62.5818 128.246 62.6884C128.368 62.7951 128.43 62.955 128.43 63.1683C128.43 63.4577 128.345 63.6862 128.177 63.8538C128.009 64.0213 127.779 64.1051 127.488 64.1051Z" fill="white"/>
<path d="M133.572 78.3633C132.821 78.3633 132.117 78.2643 131.459 78.0663C130.816 77.8682 130.265 77.6017 129.805 77.2665C129.698 77.1904 129.629 77.099 129.599 76.9923C129.568 76.8857 129.561 76.7867 129.576 76.6953C129.606 76.6039 129.66 76.5277 129.737 76.4668C129.813 76.4059 129.905 76.383 130.012 76.3983C130.119 76.3983 130.242 76.444 130.38 76.5353C130.854 76.8705 131.359 77.1142 131.895 77.2665C132.446 77.4036 133.028 77.4722 133.64 77.4722C134.559 77.4722 135.286 77.2818 135.822 76.9009C136.373 76.5201 136.649 75.9717 136.649 75.2558C136.649 74.7988 136.496 74.4179 136.189 74.1133C135.899 73.8086 135.485 73.5877 134.949 73.4506L132.722 72.8565C132.033 72.6737 131.482 72.3462 131.069 71.874C130.655 71.4018 130.448 70.8382 130.448 70.1831C130.448 69.5433 130.625 68.9797 130.977 68.4923C131.329 68.0048 131.819 67.624 132.446 67.3498C133.074 67.0756 133.794 66.9385 134.605 66.9385C135.279 66.9385 135.922 67.0451 136.534 67.2584C137.146 67.4716 137.644 67.7534 138.027 68.1038C138.134 68.2104 138.203 68.3171 138.233 68.4237C138.279 68.5303 138.287 68.6294 138.256 68.7207C138.226 68.8121 138.172 68.8807 138.095 68.9264C138.019 68.9721 137.927 68.9949 137.82 68.9949C137.728 68.9797 137.621 68.9188 137.498 68.8121C137.116 68.477 136.679 68.2333 136.189 68.081C135.7 67.9134 135.164 67.8296 134.582 67.8296C133.648 67.8296 132.89 68.0429 132.309 68.4694C131.742 68.8807 131.459 69.4443 131.459 70.1603C131.459 70.602 131.589 70.9829 131.849 71.3028C132.125 71.6227 132.538 71.8588 133.089 72.0111L135.317 72.6052C136.036 72.8032 136.603 73.1155 137.016 73.542C137.445 73.9686 137.659 74.517 137.659 75.1872C137.659 76.1621 137.284 76.939 136.534 77.5179C135.784 78.0815 134.796 78.3633 133.572 78.3633Z" fill="white"/>
<path d="M144.358 78.3633C143.608 78.3633 142.988 78.2186 142.498 77.9292C142.008 77.6245 141.664 77.198 141.465 76.6496C141.266 76.1012 141.228 75.4462 141.35 74.6845L142.429 67.9439H140.638C140.485 67.9439 140.363 67.9134 140.271 67.8525C140.179 67.7915 140.133 67.7077 140.133 67.6011C140.133 67.4335 140.187 67.3117 140.294 67.2355C140.401 67.1594 140.531 67.1213 140.684 67.1213H142.544L143.049 64.0137C143.08 63.8461 143.141 63.7243 143.233 63.6481C143.325 63.5719 143.447 63.5339 143.601 63.5339C143.754 63.5339 143.861 63.5872 143.922 63.6938C143.999 63.7852 144.022 63.9223 143.991 64.1051L143.509 67.1213H146.724C146.892 67.1213 147.015 67.1517 147.091 67.2127C147.183 67.2584 147.229 67.3422 147.229 67.464C147.229 67.6163 147.175 67.7382 147.068 67.8296C146.976 67.9058 146.846 67.9439 146.678 67.9439H143.371L142.338 74.4789C142.169 75.5452 142.261 76.3145 142.613 76.7867C142.981 77.2437 143.585 77.4722 144.427 77.4722C144.795 77.4722 145.078 77.4417 145.277 77.3808C145.476 77.3046 145.629 77.2665 145.736 77.2665C145.828 77.2665 145.897 77.297 145.943 77.3579C146.004 77.4036 146.035 77.4874 146.035 77.6093C146.035 77.7464 146.012 77.8606 145.966 77.952C145.935 78.0282 145.859 78.0891 145.736 78.1348C145.583 78.1958 145.369 78.2491 145.093 78.2948C144.833 78.3405 144.588 78.3633 144.358 78.3633Z" fill="white"/>
<defs>
<linearGradient id="paint0_linear_4_158" x1="22.7087" y1="22.75" x2="68.2086" y2="68.1673" gradientUnits="userSpaceOnUse">
<stop stop-color="#FEF9F6"/>
<stop offset="1" stop-color="#8D77CA"/>
</linearGradient>
<linearGradient id="paint1_linear_4_158" x1="167.905" y1="2.27008" x2="167.905" y2="71.8752" gradientUnits="userSpaceOnUse">
<stop stop-color="white"/>
<stop offset="1" stop-color="#5A3BB3"/>
</linearGradient>
<linearGradient id="paint2_linear_4_158" x1="167.905" y1="2.27008" x2="167.905" y2="71.8752" gradientUnits="userSpaceOnUse">
<stop stop-color="white"/>
<stop offset="1" stop-color="#5A3BB3"/>
</linearGradient>
<linearGradient id="paint3_linear_4_158" x1="167.905" y1="2.27008" x2="167.905" y2="71.8752" gradientUnits="userSpaceOnUse">
<stop stop-color="white"/>
<stop offset="1" stop-color="#5A3BB3"/>
</linearGradient>
<linearGradient id="paint4_linear_4_158" x1="167.905" y1="2.27008" x2="167.905" y2="71.8752" gradientUnits="userSpaceOnUse">
<stop stop-color="white"/>
<stop offset="1" stop-color="#5A3BB3"/>
</linearGradient>
<linearGradient id="paint5_linear_4_158" x1="167.905" y1="2.27008" x2="167.905" y2="71.8752" gradientUnits="userSpaceOnUse">
<stop stop-color="white"/>
<stop offset="1" stop-color="#5A3BB3"/>
</linearGradient>
<linearGradient id="paint6_linear_4_158" x1="167.905" y1="2.27008" x2="167.905" y2="71.8752" gradientUnits="userSpaceOnUse">
<stop stop-color="white"/>
<stop offset="1" stop-color="#5A3BB3"/>
</linearGradient>
</defs>
</svg>
