<svg width="57" height="66" viewBox="0 0 57 66" fill="none" xmlns="http://www.w3.org/2000/svg">
<path d="M1.39151 34.4043C0.623001 33.6287 0.623001 32.3713 1.39151 31.5957L12.5236 20.3617C13.2921 19.5862 14.5381 19.5862 15.3066 20.3617L26.4387 31.5957C27.2072 32.3713 27.2072 33.6287 26.4387 34.4043L15.3066 45.6383C14.5381 46.4138 13.2921 46.4138 12.5236 45.6383L1.39151 34.4043Z" fill="#7A7195"/>
<path d="M20.1769 15.4468C19.4084 14.6713 19.4084 13.4138 20.1769 12.6383L31.309 1.40426C32.0775 0.628708 33.3235 0.628709 34.092 1.40426L45.2241 12.6383C45.9926 13.4138 45.9926 14.6713 45.2241 15.4468L34.092 26.6809C33.3235 27.4564 32.0775 27.4564 31.309 26.6809L20.1769 15.4468Z" fill="#978BB8"/>
<path d="M20.1769 53.3617C19.4084 52.5862 19.4084 51.3287 20.1769 50.5532L31.309 39.3191C32.0775 38.5436 33.3235 38.5436 34.092 39.3191L45.2241 50.5532C45.9926 51.3287 45.9926 52.5862 45.2241 53.3617L34.092 64.5957C33.3235 65.3713 32.0775 65.3713 31.309 64.5957L20.1769 53.3617Z" fill="#80769B"/>
<path d="M9.74058 34.4043C8.97207 33.6287 8.97207 32.3713 9.74058 31.5957L31.309 9.82979C32.0775 9.05424 33.3235 9.05424 34.092 9.82979L55.6605 31.5957C56.429 32.3713 56.429 33.6287 55.6605 34.4043L34.092 56.1702C33.3235 56.9458 32.0775 56.9458 31.309 56.1702L9.74058 34.4043Z" fill="url(#paint0_linear_39_91)"/>
<defs>
<linearGradient id="paint0_linear_39_91" x1="16.3503" y1="16.5" x2="49.3489" y2="49.1992" gradientUnits="userSpaceOnUse">
<stop stop-color="#FEF9F6"/>
<stop offset="1" stop-color="#8D77CA"/>
</linearGradient>
</defs>
</svg>
